<svg xmlns="http://www.w3.org/2000/svg" width="369" height="318" viewBox="0 0 369 318" fill="none">
<rect width="369" height="318" rx="15" fill="#111827"/>
<circle cx="26" cy="97" r="9" fill="#D9D9D9"/>
<circle cx="18" cy="298" r="7" fill="#D9D9D9"/>
<circle cx="54" cy="298" r="7" fill="#D9D9D9"/>
<circle cx="36" cy="298" r="7" fill="#D9D9D9"/>
<circle cx="72" cy="298" r="7" fill="#D9D9D9"/>
<circle cx="36" cy="33" r="19" fill="#D9D9D9"/>
<line x1="1" y1="63.5" x2="369" y2="63.5" stroke="#bebbbb" fill="#000000"/>
<line x1="1" y1="250.5" x2="369" y2="250.5" stroke="#bebbbb" fill="#000000"/>
<rect x="317" y="264" width="34" height="34" rx="8" fill="url(#paint0_linear_2514_491)"/>
<rect x="44" y="77" width="191" height="41" rx="6" fill="#096EAE"/>
<rect x="161" y="138" width="191" height="29" rx="6" fill="#08236a"/>
<rect x="66" y="24" width="145" height="7" rx="3.5" fill="#a7a7a7"/>
<rect opacity="0.4" x="52" y="86" width="65" height="5" rx="2.5" fill="#111827"/>
<rect opacity="0.4" x="169" y="146" width="65" height="5" rx="2.5" fill="#ffffff"/>
<rect opacity="0.4" x="52" y="94" width="29" height="5" rx="2.5" fill="#111827"/>
<rect opacity="0.4" x="169" y="154" width="29" height="5" rx="2.5" fill="#ffffff"/>
<rect opacity="0.4" x="52" y="102" width="84" height="5" rx="2.5" fill="#111827"/>
<rect opacity="0.4" x="123" y="86" width="41" height="5" rx="2.5" fill="#111827"/>
<rect opacity="0.4" x="240" y="146" width="41" height="5" rx="2.5" fill="#ffffff"/>
<rect opacity="0.4" x="87" y="94" width="59" height="5" rx="2.5" fill="#111827"/>
<rect opacity="0.4" x="204" y="154" width="59" height="5" rx="2.5" fill="#ffffff"/>
<rect opacity="0.4" x="141" y="102" width="23" height="5" rx="2.5" fill="#111827"/>
<rect opacity="0.4" x="164" y="86" width="55" height="5" rx="2.5" fill="#111827"/>
<rect opacity="0.4" x="289" y="146" width="55" height="5" rx="2.5" fill="#ffffff"/>
<rect opacity="0.4" x="145" y="94" width="74" height="5" rx="2.5" fill="#111827"/>
<rect opacity="0.4" x="270" y="154" width="74" height="5" rx="2.5" fill="#ffffff"/>
<rect opacity="0.4" x="164" y="102" width="55" height="5" rx="2.5" fill="#111827"/>
<rect x="66" y="34" width="74" height="7" rx="3.5" fill="#a7a7a7"/>
<rect x="199" y="175" width="153" height="29" rx="6" fill="#08236a"/>
<rect opacity="0.4" x="207" y="183" width="51" height="5" rx="2.5" fill="#ffffff"/>
<rect opacity="0.3" x="11" y="267" width="51" height="5" rx="2.5" fill="#ffffff"/>
<rect opacity="0.4" x="207" y="191" width="23" height="5" rx="2.5" fill="#ffffff"/>
<rect opacity="0.4" x="263" y="183" width="32" height="5" rx="2.5" fill="#ffffff"/>
<rect opacity="0.4" x="234" y="191" width="47" height="5" rx="2.5" fill="#ffffff"/>
<rect opacity="0.4" x="301" y="183" width="43" height="5" rx="2.5" fill="#ffffff"/>
<rect opacity="0.4" x="286" y="191" width="58" height="5" rx="2.5" fill="#ffffff"/>
<g clip-path="url(#clip0_2514_491)">
<path d="M21.7582 103.416L22.0525 103.562C23.2787 104.289 24.652 104.628 26.0253 104.628C30.3415 104.628 33.8728 101.138 33.8728 96.8718C33.8728 94.8358 33.039 92.8481 31.5676 91.3937C30.0962 89.9393 28.1343 89.1152 26.0253 89.1152C21.7092 89.1152 18.1777 92.6057 18.2268 96.9204C18.2268 98.3747 18.6682 99.7806 19.4039 100.993L19.6001 101.283L18.8154 104.144L21.7582 103.416Z" fill="#00E676"/>
<path d="M32.4017 90.6179C30.7341 88.9211 28.4289 88 26.0747 88C21.0719 88 17.0501 92.0237 17.0991 96.9201C17.0991 98.4714 17.5405 99.9743 18.2762 101.332L17.001 105.937L21.7585 104.725C23.0828 105.452 24.5542 105.792 26.0257 105.792C30.9794 105.792 35.0013 101.768 35.0013 96.8717C35.0013 94.4962 34.0693 92.2661 32.4018 90.6179H32.4017ZM26.0747 104.289C24.7504 104.289 23.4261 103.95 22.298 103.271L22.0038 103.125L19.1591 103.853L19.8948 101.089L19.6986 100.798C17.5405 97.3565 18.5705 92.7994 22.1019 90.6663C25.6332 88.5333 30.1946 89.5513 32.3527 93.0418C34.5108 96.5323 33.4807 101.041 29.9494 103.174C28.8213 103.901 27.448 104.289 26.0747 104.289V104.289ZM30.3908 98.9079L29.8513 98.6655C29.8513 98.6655 29.0666 98.3261 28.5761 98.0837C28.527 98.0837 28.478 98.0352 28.4289 98.0352C28.2818 98.0352 28.1837 98.0837 28.0856 98.1322C28.0856 98.1322 28.0366 98.1806 27.3499 98.9563C27.3008 99.0533 27.2028 99.1018 27.1047 99.1018H27.0556C27.0066 99.1018 26.9085 99.0533 26.8594 99.0048L26.6142 98.9079C26.0747 98.6655 25.5842 98.3745 25.1918 97.9867C25.0937 97.8898 24.9466 97.7928 24.8485 97.6959C24.5051 97.3565 24.1618 96.9687 23.9166 96.5323L23.8676 96.4354C23.8185 96.3869 23.8185 96.3384 23.7695 96.2415C23.7695 96.1445 23.7695 96.0476 23.8185 95.9991C23.8185 95.9991 24.0147 95.7567 24.1618 95.6113C24.26 95.5143 24.309 95.3689 24.4071 95.2719C24.5051 95.1265 24.5542 94.9326 24.5051 94.7871C24.4561 94.5447 23.8676 93.2358 23.7205 92.9449C23.6223 92.7995 23.5243 92.751 23.3771 92.7025H22.8376C22.7395 92.7025 22.6414 92.751 22.5433 92.751L22.4942 92.7995C22.3961 92.848 22.298 92.9449 22.2 92.9934C22.1019 93.0904 22.0528 93.1873 21.9547 93.2843C21.6114 93.7206 21.4152 94.2539 21.4152 94.7871C21.4152 95.1749 21.5133 95.5628 21.6604 95.9021L21.7095 96.0476C22.1509 96.9687 22.7395 97.7928 23.5243 98.52L23.7205 98.7139C23.8676 98.8594 24.0147 98.9563 24.1128 99.1017C25.1428 99.9744 26.3199 100.605 27.6442 100.944C27.7913 100.992 27.9875 100.992 28.1347 101.041H28.6251C28.8704 101.041 29.1646 100.944 29.3609 100.847C29.508 100.75 29.606 100.75 29.7041 100.653L29.8023 100.556C29.9004 100.459 29.9985 100.411 30.0965 100.314C30.1946 100.217 30.2927 100.12 30.3418 100.023C30.4399 99.8289 30.4889 99.5865 30.538 99.3442V99.0048C30.538 99.0048 30.4889 98.9563 30.3908 98.9079V98.9079Z" fill="#ffffff"/>
</g>
<defs fill="#000000">
<linearGradient id="paint0_linear_2514_491" x1="329.009" y1="256.31" x2="349.274" y2="258.972" gradientUnits="userSpaceOnUse" fill="#000000">
<stop stop-color="#096EAE" fill="#000000"/>
<stop offset="1" stop-color="#5D90DE" fill="#000000"/>
</linearGradient>
<clipPath id="clip0_2514_491" fill="#000000">
<rect width="18" height="18" fill="#ffffff" transform="translate(17 88)"/>
</clipPath>
</defs>
</svg>