<svg width="425" height="296" viewBox="0 0 425 296" fill="none" xmlns="http://www.w3.org/2000/svg">
<path d="M33.2287 53V28.009H43.0884C44.9758 28.009 46.5865 28.3466 47.9207 29.0218C49.263 29.6889 50.2839 30.6366 50.9835 31.865C51.6913 33.0853 52.0452 34.5211 52.0452 36.1726C52.0452 37.8321 51.6872 39.2598 50.9713 40.4557C50.2555 41.6434 49.2182 42.5545 47.8597 43.1891C46.5092 43.8236 44.8741 44.1409 42.9542 44.1409H36.3526V39.8944H42.1C43.1088 39.8944 43.9467 39.7561 44.6138 39.4795C45.2808 39.2029 45.7771 38.788 46.1025 38.2348C46.436 37.6816 46.6028 36.9942 46.6028 36.1726C46.6028 35.3428 46.436 34.6432 46.1025 34.0737C45.7771 33.5043 45.2768 33.0731 44.6016 32.7802C43.9345 32.4792 43.0925 32.3287 42.0756 32.3287H38.5125V53H33.2287ZM46.7248 41.6271L52.936 53H47.1031L41.0262 41.6271H46.7248ZM63.9214 53.3661C61.9934 53.3661 60.3338 52.9756 58.9427 52.1946C57.5598 51.4055 56.4941 50.291 55.7456 48.8511C54.9972 47.4031 54.623 45.6906 54.623 43.7138C54.623 41.7858 54.9972 40.0937 55.7456 38.6375C56.4941 37.1813 57.5476 36.0465 58.9061 35.233C60.2728 34.4194 61.8754 34.0127 63.714 34.0127C64.9505 34.0127 66.1016 34.212 67.1673 34.6106C68.2411 35.0011 69.1767 35.5909 69.9739 36.38C70.7793 37.1691 71.4057 38.1616 71.8531 39.3575C72.3005 40.5452 72.5243 41.9363 72.5243 43.5308V44.9585H56.6974V41.737H67.631C67.631 40.9885 67.4683 40.3255 67.1429 39.7479C66.8175 39.1703 66.366 38.7188 65.7884 38.3934C65.2189 38.0599 64.5559 37.8931 63.7994 37.8931C63.0103 37.8931 62.3106 38.0762 61.7005 38.4423C61.0985 38.8002 60.6267 39.2842 60.285 39.8944C59.9433 40.4964 59.7684 41.1675 59.7603 41.9078V44.9707C59.7603 45.8981 59.9311 46.6994 60.2728 47.3746C60.6226 48.0498 61.1148 48.5704 61.7493 48.9365C62.3839 49.3026 63.1364 49.4856 64.0068 49.4856C64.5844 49.4856 65.1132 49.4043 65.5932 49.2416C66.0731 49.0789 66.484 48.8348 66.8256 48.5094C67.1673 48.184 67.4276 47.7854 67.6066 47.3136L72.4144 47.6308C72.1704 48.786 71.6701 49.7948 70.9135 50.6571C70.1651 51.5113 69.197 52.1784 68.0093 52.6583C66.8297 53.1302 65.4671 53.3661 63.9214 53.3661ZM84.3608 60.4192C82.6769 60.4192 81.2329 60.1874 80.0289 59.7237C78.833 59.2681 77.8812 58.6458 77.1735 57.8567C76.4657 57.0675 76.0061 56.1808 75.7946 55.1965L80.6024 54.5497C80.7488 54.9239 80.9807 55.2738 81.298 55.5992C81.6152 55.9246 82.0342 56.1849 82.5548 56.3801C83.0836 56.5835 83.7263 56.6852 84.4828 56.6852C85.6136 56.6852 86.5451 56.4086 87.2772 55.8554C88.0175 55.3104 88.3877 54.3952 88.3877 53.1098V49.6809H88.168C87.9403 50.2015 87.5986 50.6937 87.143 51.1574C86.6875 51.6211 86.1017 51.9994 85.3858 52.2922C84.6699 52.5851 83.8158 52.7315 82.8233 52.7315C81.4159 52.7315 80.1346 52.4061 78.9795 51.7553C77.8324 51.0964 76.9172 50.0917 76.2339 48.7413C75.5586 47.3827 75.221 45.6662 75.221 43.5918C75.221 41.4685 75.5668 39.6951 76.2583 38.2714C76.9497 36.8478 77.869 35.7821 79.0161 35.0743C80.1712 34.3666 81.4362 34.0127 82.8111 34.0127C83.8605 34.0127 84.7391 34.1917 85.4468 34.5496C86.1546 34.8994 86.7241 35.3387 87.1552 35.8675C87.5945 36.3881 87.9321 36.9007 88.168 37.405H88.3633V34.2567H93.525V53.183C93.525 54.7775 93.1345 56.1117 92.3535 57.1855C91.5726 58.2593 90.4906 59.0647 89.1076 59.6016C87.7328 60.1467 86.1505 60.4192 84.3608 60.4192ZM84.4706 48.8267C85.3086 48.8267 86.0163 48.6193 86.5939 48.2044C87.1796 47.7813 87.6271 47.1793 87.9362 46.3984C88.2535 45.6093 88.4121 44.6656 88.4121 43.5674C88.4121 42.4691 88.2575 41.5173 87.9484 40.7119C87.6393 39.8984 87.1918 39.268 86.6061 38.8205C86.0204 38.3731 85.3086 38.1494 84.4706 38.1494C83.6165 38.1494 82.8965 38.3812 82.3108 38.8449C81.725 39.3005 81.2817 39.935 80.9807 40.7486C80.6797 41.5621 80.5292 42.5017 80.5292 43.5674C80.5292 44.6493 80.6797 45.5849 80.9807 46.374C81.2898 47.1549 81.7332 47.761 82.3108 48.1922C82.8965 48.6152 83.6165 48.8267 84.4706 48.8267ZM97.6617 53V34.2567H102.86V53H97.6617ZM100.273 31.8406C99.5002 31.8406 98.8372 31.5844 98.284 31.0719C97.739 30.5512 97.4664 29.9289 97.4664 29.2049C97.4664 28.489 97.739 27.8748 98.284 27.3623C98.8372 26.8416 99.5002 26.5813 100.273 26.5813C101.046 26.5813 101.705 26.8416 102.25 27.3623C102.803 27.8748 103.08 28.489 103.08 29.2049C103.08 29.9289 102.803 30.5512 102.25 31.0719C101.705 31.5844 101.046 31.8406 100.273 31.8406ZM122.619 39.6015L117.86 39.8944C117.779 39.4876 117.604 39.1215 117.335 38.7961C117.067 38.4626 116.713 38.1982 116.274 38.003C115.843 37.7996 115.326 37.6979 114.724 37.6979C113.919 37.6979 113.239 37.8687 112.686 38.2104C112.133 38.5439 111.856 38.9914 111.856 39.5527C111.856 40.0001 112.035 40.3784 112.393 40.6875C112.751 40.9967 113.365 41.2448 114.236 41.4319L117.628 42.1152C119.451 42.4895 120.809 43.0915 121.704 43.9212C122.599 44.751 123.046 45.8411 123.046 47.1915C123.046 48.4199 122.684 49.4978 121.96 50.4252C121.244 51.3526 120.26 52.0767 119.007 52.5973C117.762 53.1098 116.327 53.3661 114.7 53.3661C112.218 53.3661 110.242 52.8495 108.769 51.8163C107.305 50.7751 106.447 49.3595 106.194 47.5698L111.307 47.3014C111.462 48.0579 111.836 48.6355 112.43 49.0341C113.024 49.4246 113.784 49.6199 114.712 49.6199C115.623 49.6199 116.355 49.445 116.908 49.0952C117.47 48.7372 117.754 48.2776 117.762 47.7163C117.754 47.2444 117.555 46.858 117.165 46.557C116.774 46.2479 116.172 46.012 115.359 45.8493L112.113 45.2025C110.282 44.8364 108.92 44.2019 108.025 43.2989C107.138 42.3959 106.695 41.2448 106.695 39.8456C106.695 38.6416 107.02 37.6043 107.671 36.7339C108.33 35.8634 109.253 35.1923 110.441 34.7204C111.637 34.2486 113.036 34.0127 114.639 34.0127C117.006 34.0127 118.869 34.513 120.227 35.5136C121.594 36.5142 122.391 37.8769 122.619 39.6015ZM136.289 34.2567V38.1616H125.002V34.2567H136.289ZM127.564 29.7662H132.763V47.2404C132.763 47.7203 132.836 48.0945 132.982 48.363C133.129 48.6233 133.332 48.8064 133.592 48.9121C133.861 49.0179 134.17 49.0708 134.52 49.0708C134.764 49.0708 135.008 49.0504 135.252 49.0097C135.496 48.9609 135.683 48.9243 135.813 48.8999L136.631 52.7681C136.37 52.8495 136.004 52.9431 135.533 53.0488C135.061 53.1627 134.487 53.2319 133.812 53.2563C132.559 53.3051 131.461 53.1383 130.517 52.7559C129.582 52.3736 128.854 51.7797 128.333 50.9744C127.812 50.169 127.556 49.1521 127.564 47.9237V29.7662ZM148.016 53.3661C146.088 53.3661 144.428 52.9756 143.037 52.1946C141.654 51.4055 140.589 50.291 139.84 48.8511C139.092 47.4031 138.717 45.6906 138.717 43.7138C138.717 41.7858 139.092 40.0937 139.84 38.6375C140.589 37.1813 141.642 36.0465 143.001 35.233C144.367 34.4194 145.97 34.0127 147.808 34.0127C149.045 34.0127 150.196 34.212 151.262 34.6106C152.336 35.0011 153.271 35.5909 154.068 36.38C154.874 37.1691 155.5 38.1616 155.948 39.3575C156.395 40.5452 156.619 41.9363 156.619 43.5308V44.9585H140.792V41.737H151.725C151.725 40.9885 151.563 40.3255 151.237 39.7479C150.912 39.1703 150.46 38.7188 149.883 38.3934C149.313 38.0599 148.65 37.8931 147.894 37.8931C147.105 37.8931 146.405 38.0762 145.795 38.4423C145.193 38.8002 144.721 39.2842 144.379 39.8944C144.038 40.4964 143.863 41.1675 143.855 41.9078V44.9707C143.855 45.8981 144.026 46.6994 144.367 47.3746C144.717 48.0498 145.209 48.5704 145.844 48.9365C146.478 49.3026 147.231 49.4856 148.101 49.4856C148.679 49.4856 149.208 49.4043 149.688 49.2416C150.168 49.0789 150.578 48.8348 150.92 48.5094C151.262 48.184 151.522 47.7854 151.701 47.3136L156.509 47.6308C156.265 48.786 155.765 49.7948 155.008 50.6571C154.26 51.5113 153.291 52.1784 152.104 52.6583C150.924 53.1302 149.562 53.3661 148.016 53.3661ZM160.011 53V34.2567H165.051V37.5271H165.246C165.588 36.3637 166.161 35.4851 166.967 34.8913C167.772 34.2893 168.699 33.9883 169.749 33.9883C170.009 33.9883 170.29 34.0046 170.591 34.0371C170.892 34.0696 171.156 34.1144 171.384 34.1713V38.7839C171.14 38.7107 170.802 38.6456 170.371 38.5887C169.94 38.5317 169.545 38.5033 169.187 38.5033C168.423 38.5033 167.739 38.67 167.137 39.0036C166.544 39.329 166.072 39.7845 165.722 40.3703C165.38 40.956 165.209 41.6312 165.209 42.3959V53H160.011Z" fill="#096FAF"/>
<rect x="31" y="258" width="183" height="38" rx="4.78341" fill="#096FAF"/>
<path d="M64.2457 281.894V272.965H67.5239C68.2383 272.965 68.825 273.088 69.2842 273.335C69.7519 273.573 70.1006 273.9 70.3302 274.317C70.5598 274.725 70.6746 275.18 70.6746 275.682C70.6746 276.226 70.53 276.724 70.2409 277.174C69.9603 277.625 69.5181 277.953 68.9143 278.157L70.7639 281.894H68.8888L67.2306 278.373H65.8784V281.894H64.2457ZM65.8784 277.174H67.4219C67.9661 277.174 68.3658 277.043 68.6209 276.779C68.876 276.515 69.0036 276.167 69.0036 275.733C69.0036 275.308 68.876 274.968 68.6209 274.713C68.3743 274.457 67.9704 274.33 67.4091 274.33H65.8784V277.174ZM74.8429 282.047C74.2051 282.047 73.6396 281.911 73.1463 281.639C72.6531 281.367 72.2662 280.984 71.9856 280.491C71.7049 279.998 71.5646 279.428 71.5646 278.782C71.5646 278.127 71.7007 277.544 71.9728 277.034C72.2534 276.524 72.6361 276.128 73.1208 275.848C73.614 275.559 74.1923 275.414 74.8556 275.414C75.4764 275.414 76.0249 275.55 76.5011 275.822C76.9773 276.094 77.3472 276.469 77.6108 276.945C77.883 277.413 78.019 277.936 78.019 278.514C78.019 278.607 78.0148 278.705 78.0063 278.807C78.0063 278.909 78.002 279.015 77.9935 279.126H73.1846C73.2186 279.619 73.3887 280.006 73.6948 280.287C74.0095 280.567 74.3879 280.708 74.8301 280.708C75.1617 280.708 75.4381 280.635 75.6592 280.491C75.8888 280.338 76.0589 280.142 76.1694 279.904H77.8277C77.7086 280.304 77.5088 280.669 77.2282 281.001C76.9561 281.324 76.6159 281.579 76.2077 281.766C75.808 281.954 75.3531 282.047 74.8429 282.047ZM74.8556 276.741C74.4559 276.741 74.103 276.856 73.7969 277.085C73.4907 277.306 73.2952 277.646 73.2101 278.106H76.3608C76.3353 277.689 76.1822 277.357 75.9016 277.111C75.621 276.864 75.2723 276.741 74.8556 276.741ZM84.418 284.7V280.988C84.2139 281.269 83.9418 281.516 83.6017 281.728C83.27 281.941 82.8363 282.047 82.3006 282.047C81.7053 282.047 81.1738 281.903 80.7061 281.613C80.2384 281.324 79.8685 280.929 79.5964 280.427C79.3242 279.925 79.1882 279.356 79.1882 278.718C79.1882 278.08 79.3242 277.515 79.5964 277.021C79.8685 276.52 80.2384 276.128 80.7061 275.848C81.1738 275.559 81.7053 275.414 82.3006 275.414C82.7768 275.414 83.1935 275.503 83.5506 275.682C83.9078 275.861 84.1969 276.111 84.418 276.435L84.5966 275.567H86.0508V284.7H84.418ZM82.645 280.618C83.1722 280.618 83.6017 280.444 83.9333 280.095C84.2735 279.738 84.4436 279.283 84.4436 278.731C84.4436 278.178 84.2735 277.727 83.9333 277.379C83.6017 277.021 83.1722 276.843 82.645 276.843C82.1263 276.843 81.6968 277.017 81.3567 277.366C81.0165 277.714 80.8464 278.165 80.8464 278.718C80.8464 279.271 81.0165 279.726 81.3567 280.083C81.6968 280.44 82.1263 280.618 82.645 280.618ZM90.086 282.047C89.2951 282.047 88.6828 281.801 88.2492 281.307C87.824 280.814 87.6114 280.091 87.6114 279.139V275.567H89.2313V278.986C89.2313 279.53 89.3419 279.947 89.563 280.236C89.7841 280.525 90.1328 280.669 90.609 280.669C91.0597 280.669 91.4296 280.508 91.7187 280.185C92.0164 279.862 92.1652 279.411 92.1652 278.833V275.567H93.7979V281.894H92.3565L92.229 280.823C92.0334 281.197 91.7485 281.494 91.3743 281.715C91.0086 281.937 90.5792 282.047 90.086 282.047ZM98.5481 282.047C97.9103 282.047 97.3448 281.911 96.8516 281.639C96.3584 281.367 95.9715 280.984 95.6908 280.491C95.4102 279.998 95.2699 279.428 95.2699 278.782C95.2699 278.127 95.406 277.544 95.6781 277.034C95.9587 276.524 96.3414 276.128 96.8261 275.848C97.3193 275.559 97.8976 275.414 98.5609 275.414C99.1817 275.414 99.7302 275.55 100.206 275.822C100.683 276.094 101.053 276.469 101.316 276.945C101.588 277.413 101.724 277.936 101.724 278.514C101.724 278.607 101.72 278.705 101.712 278.807C101.712 278.909 101.707 279.015 101.699 279.126H96.8899C96.9239 279.619 97.094 280.006 97.4001 280.287C97.7148 280.567 98.0932 280.708 98.5354 280.708C98.867 280.708 99.1434 280.635 99.3645 280.491C99.5941 280.338 99.7642 280.142 99.8747 279.904H101.533C101.414 280.304 101.214 280.669 100.933 281.001C100.661 281.324 100.321 281.579 99.913 281.766C99.5133 281.954 99.0584 282.047 98.5481 282.047ZM98.5609 276.741C98.1612 276.741 97.8083 276.856 97.5022 277.085C97.196 277.306 97.0004 277.646 96.9154 278.106H100.066C100.041 277.689 99.8875 277.357 99.6069 277.111C99.3262 276.864 98.9776 276.741 98.5609 276.741ZM105.712 282.047C105.151 282.047 104.658 281.958 104.233 281.779C103.808 281.592 103.467 281.337 103.212 281.014C102.957 280.691 102.804 280.317 102.753 279.891H104.399C104.45 280.138 104.586 280.351 104.807 280.529C105.036 280.699 105.33 280.784 105.687 280.784C106.044 280.784 106.304 280.712 106.465 280.567C106.635 280.423 106.72 280.257 106.72 280.07C106.72 279.798 106.601 279.615 106.363 279.521C106.125 279.419 105.793 279.322 105.368 279.228C105.096 279.169 104.82 279.096 104.539 279.011C104.258 278.926 103.999 278.82 103.761 278.692C103.531 278.556 103.344 278.386 103.2 278.182C103.055 277.97 102.983 277.71 102.983 277.404C102.983 276.843 103.204 276.371 103.646 275.988C104.097 275.605 104.726 275.414 105.534 275.414C106.282 275.414 106.878 275.588 107.32 275.937C107.77 276.286 108.038 276.766 108.123 277.379H106.58C106.486 276.911 106.133 276.677 105.521 276.677C105.215 276.677 104.977 276.736 104.807 276.856C104.645 276.975 104.564 277.123 104.564 277.302C104.564 277.489 104.688 277.638 104.934 277.748C105.181 277.859 105.508 277.961 105.917 278.055C106.359 278.157 106.763 278.271 107.128 278.399C107.503 278.518 107.8 278.701 108.021 278.947C108.242 279.186 108.353 279.53 108.353 279.981C108.361 280.372 108.259 280.725 108.047 281.039C107.834 281.354 107.528 281.601 107.128 281.779C106.729 281.958 106.257 282.047 105.712 282.047ZM112.419 281.894C111.756 281.894 111.224 281.732 110.825 281.409C110.425 281.086 110.225 280.512 110.225 279.687V276.932H109.141V275.567H110.225L110.416 273.871H111.858V275.567H113.567V276.932H111.858V279.7C111.858 280.006 111.922 280.219 112.049 280.338C112.185 280.448 112.415 280.504 112.738 280.504H113.529V281.894H112.419ZM118.302 281.894V276.932H117.434V275.567H118.302V274.827C118.302 274.062 118.493 273.518 118.876 273.195C119.267 272.871 119.794 272.71 120.457 272.71H121.159V274.1H120.713C120.432 274.1 120.232 274.156 120.113 274.266C119.994 274.377 119.934 274.564 119.934 274.827V275.567H121.299V276.932H119.934V281.894H118.302ZM122.592 281.894V275.567H124.047L124.2 276.753C124.429 276.345 124.74 276.022 125.131 275.784C125.531 275.537 125.998 275.414 126.534 275.414V277.136H126.075C125.718 277.136 125.399 277.191 125.118 277.302C124.837 277.413 124.616 277.604 124.455 277.876C124.302 278.148 124.225 278.527 124.225 279.011V281.894H122.592ZM130.612 282.047C129.974 282.047 129.409 281.911 128.915 281.639C128.422 281.367 128.035 280.984 127.755 280.491C127.474 279.998 127.334 279.428 127.334 278.782C127.334 278.127 127.47 277.544 127.742 277.034C128.023 276.524 128.405 276.128 128.89 275.848C129.383 275.559 129.961 275.414 130.625 275.414C131.245 275.414 131.794 275.55 132.27 275.822C132.746 276.094 133.116 276.469 133.38 276.945C133.652 277.413 133.788 277.936 133.788 278.514C133.788 278.607 133.784 278.705 133.775 278.807C133.775 278.909 133.771 279.015 133.763 279.126H128.954C128.988 279.619 129.158 280.006 129.464 280.287C129.779 280.567 130.157 280.708 130.599 280.708C130.931 280.708 131.207 280.635 131.428 280.491C131.658 280.338 131.828 280.142 131.939 279.904H133.597C133.478 280.304 133.278 280.669 132.997 281.001C132.725 281.324 132.385 281.579 131.977 281.766C131.577 281.954 131.122 282.047 130.612 282.047ZM130.625 276.741C130.225 276.741 129.872 276.856 129.566 277.085C129.26 277.306 129.064 277.646 128.979 278.106H132.13C132.104 277.689 131.951 277.357 131.671 277.111C131.39 276.864 131.041 276.741 130.625 276.741ZM138.235 282.047C137.598 282.047 137.032 281.911 136.539 281.639C136.046 281.367 135.659 280.984 135.378 280.491C135.098 279.998 134.957 279.428 134.957 278.782C134.957 278.127 135.093 277.544 135.365 277.034C135.646 276.524 136.029 276.128 136.513 275.848C137.007 275.559 137.585 275.414 138.248 275.414C138.869 275.414 139.418 275.55 139.894 275.822C140.37 276.094 140.74 276.469 141.003 276.945C141.276 277.413 141.412 277.936 141.412 278.514C141.412 278.607 141.407 278.705 141.399 278.807C141.399 278.909 141.395 279.015 141.386 279.126H136.577C136.611 279.619 136.781 280.006 137.087 280.287C137.402 280.567 137.781 280.708 138.223 280.708C138.554 280.708 138.831 280.635 139.052 280.491C139.281 280.338 139.452 280.142 139.562 279.904H141.22C141.101 280.304 140.901 280.669 140.621 281.001C140.349 281.324 140.009 281.579 139.6 281.766C139.201 281.954 138.746 282.047 138.235 282.047ZM138.248 276.741C137.849 276.741 137.496 276.856 137.19 277.085C136.883 277.306 136.688 277.646 136.603 278.106H139.753C139.728 277.689 139.575 277.357 139.294 277.111C139.014 276.864 138.665 276.741 138.248 276.741ZM148.733 282.047C148.137 282.047 147.606 281.903 147.138 281.613C146.671 281.324 146.301 280.929 146.028 280.427C145.756 279.925 145.62 279.356 145.62 278.718C145.62 278.08 145.756 277.515 146.028 277.021C146.301 276.52 146.671 276.128 147.138 275.848C147.606 275.559 148.137 275.414 148.733 275.414C149.209 275.414 149.626 275.503 149.983 275.682C150.34 275.861 150.629 276.111 150.85 276.435V272.71H152.483V281.894H151.029L150.85 280.988C150.646 281.269 150.374 281.516 150.034 281.728C149.702 281.941 149.268 282.047 148.733 282.047ZM149.077 280.618C149.604 280.618 150.034 280.444 150.365 280.095C150.706 279.738 150.876 279.283 150.876 278.731C150.876 278.178 150.706 277.727 150.365 277.379C150.034 277.021 149.604 276.843 149.077 276.843C148.558 276.843 148.129 277.017 147.789 277.366C147.449 277.714 147.279 278.165 147.279 278.718C147.279 279.271 147.449 279.726 147.789 280.083C148.129 280.44 148.558 280.618 149.077 280.618ZM157.22 282.047C156.582 282.047 156.016 281.911 155.523 281.639C155.03 281.367 154.643 280.984 154.362 280.491C154.082 279.998 153.941 279.428 153.941 278.782C153.941 278.127 154.077 277.544 154.35 277.034C154.63 276.524 155.013 276.128 155.498 275.848C155.991 275.559 156.569 275.414 157.232 275.414C157.853 275.414 158.402 275.55 158.878 275.822C159.354 276.094 159.724 276.469 159.988 276.945C160.26 277.413 160.396 277.936 160.396 278.514C160.396 278.607 160.392 278.705 160.383 278.807C160.383 278.909 160.379 279.015 160.37 279.126H155.561C155.595 279.619 155.765 280.006 156.072 280.287C156.386 280.567 156.765 280.708 157.207 280.708C157.539 280.708 157.815 280.635 158.036 280.491C158.266 280.338 158.436 280.142 158.546 279.904H160.204C160.085 280.304 159.886 280.669 159.605 281.001C159.333 281.324 158.993 281.579 158.585 281.766C158.185 281.954 157.73 282.047 157.22 282.047ZM157.232 276.741C156.833 276.741 156.48 276.856 156.174 277.085C155.868 277.306 155.672 277.646 155.587 278.106H158.738C158.712 277.689 158.559 277.357 158.278 277.111C157.998 276.864 157.649 276.741 157.232 276.741ZM161.769 281.894V275.567H163.21L163.351 276.422C163.555 276.116 163.823 275.873 164.154 275.695C164.495 275.508 164.886 275.414 165.328 275.414C166.306 275.414 166.999 275.793 167.407 276.549C167.637 276.201 167.943 275.924 168.326 275.72C168.717 275.516 169.142 275.414 169.601 275.414C170.426 275.414 171.06 275.661 171.502 276.154C171.944 276.647 172.165 277.37 172.165 278.322V281.894H170.532V278.475C170.532 277.931 170.426 277.515 170.213 277.225C170.009 276.936 169.69 276.792 169.257 276.792C168.815 276.792 168.457 276.953 168.185 277.276C167.922 277.6 167.79 278.05 167.79 278.629V281.894H166.157V278.475C166.157 277.931 166.051 277.515 165.838 277.225C165.626 276.936 165.298 276.792 164.856 276.792C164.422 276.792 164.069 276.953 163.797 277.276C163.534 277.6 163.402 278.05 163.402 278.629V281.894H161.769ZM176.751 282.047C176.139 282.047 175.586 281.907 175.093 281.626C174.608 281.346 174.221 280.959 173.932 280.465C173.651 279.964 173.511 279.385 173.511 278.731C173.511 278.076 173.656 277.502 173.945 277.009C174.234 276.507 174.621 276.116 175.106 275.835C175.599 275.554 176.151 275.414 176.764 275.414C177.368 275.414 177.912 275.554 178.397 275.835C178.89 276.116 179.277 276.507 179.557 277.009C179.846 277.502 179.991 278.076 179.991 278.731C179.991 279.385 179.846 279.964 179.557 280.465C179.277 280.959 178.89 281.346 178.397 281.626C177.903 281.907 177.355 282.047 176.751 282.047ZM176.751 280.631C177.176 280.631 177.546 280.474 177.861 280.159C178.175 279.836 178.333 279.36 178.333 278.731C178.333 278.101 178.175 277.629 177.861 277.315C177.546 276.992 177.18 276.83 176.764 276.83C176.33 276.83 175.956 276.992 175.641 277.315C175.335 277.629 175.182 278.101 175.182 278.731C175.182 279.36 175.335 279.836 175.641 280.159C175.956 280.474 176.326 280.631 176.751 280.631Z" fill="white" fill-opacity="0.8"/>
<rect x="31.6344" y="112.811" width="347.676" height="37.4133" rx="4.20082" stroke="#096EAE" stroke-width="1.26889"/>
<rect x="31.6344" y="193.952" width="347.676" height="37.4133" rx="4.20082" stroke="#096EAE" stroke-width="1.26889"/>
<path d="M31.9155 101V91.9742H37.6533V93.0831H33.2822V95.894H37.2665V96.9771H33.2822V99.8911H37.6533V101H31.9155ZM39.2301 101V94.6046H40.4422L40.5582 95.5071C40.7645 95.1805 41.0353 94.9226 41.3705 94.7335C41.7144 94.5444 42.1098 94.4498 42.5568 94.4498C43.5711 94.4498 44.276 94.8495 44.6714 95.649C44.9035 95.2793 45.213 94.9871 45.5998 94.7722C45.9952 94.5573 46.4207 94.4498 46.8763 94.4498C47.6757 94.4498 48.3032 94.6905 48.7588 95.1719C49.2144 95.6533 49.4422 96.371 49.4422 97.3252V101H48.0754V97.467C48.0754 96.2292 47.6027 95.6103 46.6571 95.6103C46.1757 95.6103 45.7803 95.7908 45.4709 96.1518C45.17 96.5129 45.0196 97.0286 45.0196 97.6991V101H43.6528V97.467C43.6528 96.2292 43.1757 95.6103 42.2216 95.6103C41.7488 95.6103 41.3576 95.7908 41.0482 96.1518C40.7473 96.5129 40.5969 97.0286 40.5969 97.6991V101H39.2301ZM53.2075 101.155C52.6659 101.155 52.2189 101.064 51.8665 100.884C51.5141 100.703 51.2519 100.467 51.08 100.175C50.908 99.8739 50.8221 99.5473 50.8221 99.1948C50.8221 98.5759 51.0628 98.0859 51.5441 97.7249C52.0255 97.3639 52.7132 97.1834 53.6072 97.1834H55.2834V97.0673C55.2834 96.5687 55.1459 96.1948 54.8708 95.9455C54.6043 95.6962 54.2562 95.5716 53.8264 95.5716C53.4482 95.5716 53.1172 95.6662 52.8336 95.8553C52.5585 96.0358 52.3909 96.3066 52.3307 96.6676H50.9639C51.0069 96.2034 51.1616 95.808 51.4281 95.4813C51.7032 95.1461 52.047 94.8925 52.4596 94.7206C52.8808 94.5401 53.3407 94.4498 53.8393 94.4498C54.7333 94.4498 55.4253 94.6862 55.9152 95.159C56.4052 95.6232 56.6502 96.2593 56.6502 97.0673V101H55.4639L55.3479 99.904C55.1674 100.256 54.9052 100.553 54.5614 100.794C54.2175 101.034 53.7662 101.155 53.2075 101.155ZM53.4783 100.046C53.8479 100.046 54.1573 99.9599 54.4066 99.788C54.6645 99.6074 54.8622 99.3711 54.9998 99.0788C55.1459 98.7865 55.2361 98.4642 55.2705 98.1117H53.749C53.2075 98.1117 52.8207 98.2063 52.5886 98.3954C52.3651 98.5845 52.2533 98.8209 52.2533 99.1046C52.2533 99.3968 52.3608 99.6289 52.5757 99.8009C52.7992 99.9642 53.1 100.046 53.4783 100.046ZM59.0175 93.3925C58.7596 93.3925 58.5447 93.3151 58.3728 93.1604C58.2094 92.9971 58.1278 92.7951 58.1278 92.5544C58.1278 92.3137 58.2094 92.116 58.3728 91.9613C58.5447 91.7979 58.7596 91.7163 59.0175 91.7163C59.2753 91.7163 59.4859 91.7979 59.6493 91.9613C59.8212 92.116 59.9071 92.3137 59.9071 92.5544C59.9071 92.7951 59.8212 92.9971 59.6493 93.1604C59.4859 93.3151 59.2753 93.3925 59.0175 93.3925ZM58.3341 101V94.6046H59.7008V101H58.3341ZM61.5051 101V91.7163H62.8719V101H61.5051Z" fill="white" fill-opacity="0.8"/>
<path d="M49.471 128.645C49.2561 128.645 49.0756 128.576 48.9294 128.438C48.7919 128.292 48.7231 128.112 48.7231 127.897C48.7231 127.691 48.7919 127.519 48.9294 127.381C49.0756 127.244 49.2561 127.175 49.471 127.175C49.6773 127.175 49.8535 127.244 49.9996 127.381C50.1458 127.519 50.2188 127.691 50.2188 127.897C50.2188 128.112 50.1458 128.292 49.9996 128.438C49.8535 128.576 49.6773 128.645 49.471 128.645ZM48.9294 136.458V130.063H50.0125V136.458H48.9294ZM54.4256 134.447C54.0646 134.447 53.7337 134.4 53.4328 134.305L52.7881 134.911C52.8826 134.98 52.9987 135.04 53.1362 135.092C53.2824 135.135 53.4887 135.178 53.7551 135.221C54.0216 135.255 54.3955 135.294 54.8769 135.337C55.7365 135.397 56.3511 135.595 56.7208 135.93C57.0904 136.265 57.2752 136.703 57.2752 137.245C57.2752 137.615 57.1721 137.967 56.9658 138.302C56.7681 138.638 56.4586 138.913 56.0374 139.128C55.6248 139.342 55.0918 139.45 54.4385 139.45C53.8626 139.45 53.3511 139.373 52.9041 139.218C52.4571 139.072 52.109 138.844 51.8597 138.534C51.6104 138.234 51.4858 137.851 51.4858 137.387C51.4858 137.146 51.5503 136.884 51.6792 136.6C51.8081 136.325 52.0488 136.063 52.4013 135.814C52.2122 135.736 52.0488 135.655 51.9113 135.569C51.7824 135.474 51.662 135.371 51.5503 135.259V134.963L52.6463 133.88C52.1391 133.45 51.8855 132.883 51.8855 132.178C51.8855 131.756 51.9844 131.374 52.1821 131.03C52.3798 130.686 52.6677 130.415 53.046 130.218C53.4242 130.011 53.8841 129.908 54.4256 129.908C54.7953 129.908 55.1305 129.96 55.4314 130.063H57.791V130.875L56.5918 130.927C56.8411 131.288 56.9658 131.705 56.9658 132.178C56.9658 132.599 56.8626 132.981 56.6563 133.325C56.4586 133.669 56.1706 133.944 55.7924 134.15C55.4228 134.348 54.9672 134.447 54.4256 134.447ZM54.4256 133.557C54.8812 133.557 55.2423 133.441 55.5087 133.209C55.7838 132.969 55.9213 132.625 55.9213 132.178C55.9213 131.739 55.7838 131.404 55.5087 131.172C55.2423 130.931 54.8812 130.811 54.4256 130.811C53.9614 130.811 53.5918 130.931 53.3167 131.172C53.0503 131.404 52.917 131.739 52.917 132.178C52.917 132.625 53.0503 132.969 53.3167 133.209C53.5918 133.441 53.9614 133.557 54.4256 133.557ZM52.5431 137.284C52.5431 137.714 52.7236 138.032 53.0847 138.238C53.4457 138.453 53.897 138.56 54.4385 138.56C54.9715 138.56 55.397 138.444 55.715 138.212C56.0417 137.98 56.205 137.671 56.205 137.284C56.205 137.009 56.0933 136.768 55.8698 136.562C55.6463 136.364 55.2337 136.248 54.6319 136.214C54.1592 136.179 53.7508 136.136 53.407 136.085C53.0546 136.274 52.8225 136.476 52.7107 136.691C52.599 136.914 52.5431 137.112 52.5431 137.284ZM59.0128 136.458V130.063H59.9927L60.0572 131.211C60.2635 130.807 60.5601 130.489 60.9469 130.256C61.3337 130.024 61.7721 129.908 62.2621 129.908C63.0185 129.908 63.6203 130.14 64.0673 130.605C64.5228 131.06 64.7506 131.765 64.7506 132.719V136.458H63.6675V132.835C63.6675 131.503 63.1174 130.837 62.0171 130.837C61.467 130.837 61.0071 131.039 60.6374 131.443C60.2764 131.838 60.0959 132.405 60.0959 133.145V136.458H59.0128ZM68.5191 136.613C67.9862 136.613 67.5435 136.523 67.191 136.342C66.8386 136.162 66.5764 135.921 66.4045 135.62C66.2326 135.32 66.1466 134.993 66.1466 134.64C66.1466 133.987 66.3959 133.484 66.8945 133.132C67.393 132.779 68.0721 132.603 68.9317 132.603H70.6595V132.526C70.6595 131.967 70.5134 131.546 70.2211 131.262C69.9289 130.97 69.5378 130.824 69.0478 130.824C68.6266 130.824 68.2612 130.931 67.9518 131.146C67.6509 131.352 67.4618 131.658 67.3845 132.062H66.2756C66.3185 131.597 66.4733 131.206 66.7398 130.888C67.0148 130.57 67.3544 130.33 67.7584 130.166C68.1624 129.994 68.5922 129.908 69.0478 129.908C69.9418 129.908 70.6123 130.149 71.0593 130.63C71.5148 131.103 71.7426 131.735 71.7426 132.526V136.458H70.7756L70.7111 135.311C70.5306 135.672 70.2641 135.981 69.9117 136.239C69.5678 136.489 69.1037 136.613 68.5191 136.613ZM68.6868 135.698C69.0994 135.698 69.4518 135.59 69.7441 135.375C70.0449 135.16 70.2727 134.881 70.4274 134.537C70.5822 134.193 70.6595 133.832 70.6595 133.454V133.441H69.022C68.3859 133.441 67.9346 133.553 67.6681 133.777C67.4102 133.991 67.2813 134.262 67.2813 134.589C67.2813 134.924 67.4016 135.195 67.6423 135.401C67.8916 135.599 68.2398 135.698 68.6868 135.698ZM76.3073 136.613C75.697 136.613 75.1469 136.476 74.6569 136.201C74.1755 135.917 73.793 135.526 73.5093 135.027C73.2343 134.52 73.0967 133.931 73.0967 133.261C73.0967 132.59 73.2343 132.006 73.5093 131.507C73.793 131 74.1755 130.609 74.6569 130.334C75.1469 130.05 75.697 129.908 76.3073 129.908C77.0638 129.908 77.6999 130.106 78.2157 130.501C78.74 130.897 79.071 131.426 79.2085 132.087H78.0996C78.0136 131.692 77.803 131.387 77.4678 131.172C77.1326 130.948 76.7414 130.837 76.2944 130.837C75.9334 130.837 75.5939 130.927 75.2758 131.107C74.9578 131.288 74.6999 131.559 74.5022 131.92C74.3045 132.281 74.2056 132.728 74.2056 133.261C74.2056 133.794 74.3045 134.241 74.5022 134.602C74.6999 134.963 74.9578 135.238 75.2758 135.427C75.5939 135.607 75.9334 135.698 76.2944 135.698C76.7414 135.698 77.1326 135.59 77.4678 135.375C77.803 135.152 78.0136 134.838 78.0996 134.434H79.2085C79.0796 135.079 78.7529 135.603 78.2286 136.007C77.7042 136.411 77.0638 136.613 76.3073 136.613ZM81.3787 128.645C81.1638 128.645 80.9833 128.576 80.8372 128.438C80.6996 128.292 80.6309 128.112 80.6309 127.897C80.6309 127.691 80.6996 127.519 80.8372 127.381C80.9833 127.244 81.1638 127.175 81.3787 127.175C81.585 127.175 81.7613 127.244 81.9074 127.381C82.0535 127.519 82.1266 127.691 82.1266 127.897C82.1266 128.112 82.0535 128.292 81.9074 128.438C81.7613 128.576 81.585 128.645 81.3787 128.645ZM80.8372 136.458V130.063H81.9203V136.458H80.8372ZM86.14 136.613C85.3835 136.613 84.7818 136.385 84.3348 135.93C83.8878 135.466 83.6643 134.756 83.6643 133.802V130.063H84.7474V133.686C84.7474 135.019 85.2932 135.685 86.3849 135.685C86.9437 135.685 87.4036 135.487 87.7646 135.092C88.1342 134.688 88.3191 134.116 88.3191 133.377V130.063H89.4022V136.458H88.4222L88.3448 135.311C88.1471 135.715 87.8506 136.033 87.4551 136.265C87.0683 136.497 86.6299 136.613 86.14 136.613ZM93.6348 136.613C92.8698 136.613 92.2337 136.42 91.7265 136.033C91.2193 135.646 90.9228 135.122 90.8368 134.46H91.9457C92.0145 134.795 92.1907 135.087 92.4744 135.337C92.7666 135.577 93.1577 135.698 93.6477 135.698C94.1033 135.698 94.4386 135.603 94.6535 135.414C94.8684 135.216 94.9758 134.984 94.9758 134.718C94.9758 134.331 94.834 134.073 94.5503 133.944C94.2752 133.815 93.8841 133.699 93.3769 133.596C93.0331 133.527 92.6893 133.428 92.3454 133.299C92.0016 133.171 91.7136 132.99 91.4815 132.758C91.2494 132.517 91.1334 132.203 91.1334 131.817C91.1334 131.258 91.3397 130.802 91.7523 130.45C92.1735 130.089 92.7408 129.908 93.4543 129.908C94.1334 129.908 94.6878 130.08 95.1176 130.424C95.556 130.759 95.8096 131.241 95.8784 131.868H94.8082C94.7652 131.542 94.6234 131.288 94.3827 131.107C94.1506 130.918 93.8368 130.824 93.4414 130.824C93.0546 130.824 92.7537 130.905 92.5388 131.069C92.3325 131.232 92.2294 131.447 92.2294 131.713C92.2294 131.971 92.3626 132.173 92.6291 132.32C92.9042 132.466 93.2738 132.59 93.738 132.693C94.1334 132.779 94.5073 132.887 94.8598 133.016C95.2208 133.136 95.5131 133.321 95.7366 133.57C95.9686 133.811 96.0847 134.163 96.0847 134.628C96.0933 135.203 95.8741 135.681 95.4271 136.059C94.9887 136.428 94.3913 136.613 93.6348 136.613ZM97.503 137.941V136.923H104.26V137.941H97.503ZM108.432 134.447C108.071 134.447 107.74 134.4 107.439 134.305L106.795 134.911C106.889 134.98 107.005 135.04 107.143 135.092C107.289 135.135 107.495 135.178 107.762 135.221C108.028 135.255 108.402 135.294 108.883 135.337C109.743 135.397 110.358 135.595 110.727 135.93C111.097 136.265 111.282 136.703 111.282 137.245C111.282 137.615 111.178 137.967 110.972 138.302C110.774 138.638 110.465 138.913 110.044 139.128C109.631 139.342 109.098 139.45 108.445 139.45C107.869 139.45 107.358 139.373 106.911 139.218C106.464 139.072 106.115 138.844 105.866 138.534C105.617 138.234 105.492 137.851 105.492 137.387C105.492 137.146 105.557 136.884 105.686 136.6C105.815 136.325 106.055 136.063 106.408 135.814C106.219 135.736 106.055 135.655 105.918 135.569C105.789 135.474 105.668 135.371 105.557 135.259V134.963L106.653 133.88C106.146 133.45 105.892 132.883 105.892 132.178C105.892 131.756 105.991 131.374 106.188 131.03C106.386 130.686 106.674 130.415 107.052 130.218C107.431 130.011 107.891 129.908 108.432 129.908C108.802 129.908 109.137 129.96 109.438 130.063H111.797V130.875L110.598 130.927C110.848 131.288 110.972 131.705 110.972 132.178C110.972 132.599 110.869 132.981 110.663 133.325C110.465 133.669 110.177 133.944 109.799 134.15C109.429 134.348 108.974 134.447 108.432 134.447ZM108.432 133.557C108.888 133.557 109.249 133.441 109.515 133.209C109.79 132.969 109.928 132.625 109.928 132.178C109.928 131.739 109.79 131.404 109.515 131.172C109.249 130.931 108.888 130.811 108.432 130.811C107.968 130.811 107.598 130.931 107.323 131.172C107.057 131.404 106.923 131.739 106.923 132.178C106.923 132.625 107.057 132.969 107.323 133.209C107.598 133.441 107.968 133.557 108.432 133.557ZM106.55 137.284C106.55 137.714 106.73 138.032 107.091 138.238C107.452 138.453 107.903 138.56 108.445 138.56C108.978 138.56 109.403 138.444 109.721 138.212C110.048 137.98 110.211 137.671 110.211 137.284C110.211 137.009 110.1 136.768 109.876 136.562C109.653 136.364 109.24 136.248 108.638 136.214C108.166 136.179 107.757 136.136 107.413 136.085C107.061 136.274 106.829 136.476 106.717 136.691C106.605 136.914 106.55 137.112 106.55 137.284ZM115.681 136.613C115.08 136.613 114.538 136.476 114.057 136.201C113.575 135.926 113.193 135.539 112.909 135.04C112.634 134.533 112.497 133.94 112.497 133.261C112.497 132.582 112.638 131.993 112.922 131.494C113.206 130.987 113.588 130.596 114.07 130.321C114.56 130.046 115.105 129.908 115.707 129.908C116.309 129.908 116.85 130.046 117.332 130.321C117.813 130.596 118.191 130.987 118.467 131.494C118.75 131.993 118.892 132.582 118.892 133.261C118.892 133.94 118.75 134.533 118.467 135.04C118.183 135.539 117.796 135.926 117.306 136.201C116.825 136.476 116.283 136.613 115.681 136.613ZM115.681 135.685C116.051 135.685 116.395 135.595 116.713 135.414C117.031 135.234 117.289 134.963 117.487 134.602C117.684 134.241 117.783 133.794 117.783 133.261C117.783 132.728 117.684 132.281 117.487 131.92C117.297 131.559 117.044 131.288 116.726 131.107C116.408 130.927 116.068 130.837 115.707 130.837C115.338 130.837 114.994 130.927 114.676 131.107C114.358 131.288 114.1 131.559 113.902 131.92C113.704 132.281 113.605 132.728 113.605 133.261C113.605 133.794 113.704 134.241 113.902 134.602C114.1 134.963 114.353 135.234 114.663 135.414C114.981 135.595 115.32 135.685 115.681 135.685ZM120.398 136.458V130.063H121.378L121.442 131.211C121.649 130.807 121.945 130.489 122.332 130.256C122.719 130.024 123.157 129.908 123.647 129.908C124.404 129.908 125.006 130.14 125.453 130.605C125.908 131.06 126.136 131.765 126.136 132.719V136.458H125.053V132.835C125.053 131.503 124.503 130.837 123.402 130.837C122.852 130.837 122.392 131.039 122.023 131.443C121.662 131.838 121.481 132.405 121.481 133.145V136.458H120.398ZM132.457 139.024C131.538 139.024 130.73 138.848 130.033 138.496C129.346 138.143 128.808 137.645 128.422 137C128.043 136.355 127.854 135.59 127.854 134.705C127.854 133.794 128.013 132.943 128.331 132.152C128.649 131.361 129.096 130.669 129.672 130.076C130.248 129.483 130.927 129.023 131.71 128.696C132.492 128.37 133.351 128.206 134.288 128.206C135.243 128.206 136.072 128.391 136.777 128.761C137.482 129.122 138.023 129.629 138.402 130.282C138.788 130.927 138.982 131.679 138.982 132.539C138.982 133.029 138.922 133.514 138.801 133.996C138.681 134.469 138.5 134.898 138.26 135.285C138.028 135.663 137.74 135.969 137.396 136.201C137.061 136.424 136.674 136.536 136.235 136.536C135.797 136.536 135.462 136.424 135.23 136.201C135.006 135.977 134.881 135.676 134.856 135.298C134.589 135.685 134.25 135.99 133.837 136.214C133.433 136.428 133.003 136.536 132.548 136.536C131.894 136.536 131.383 136.338 131.013 135.943C130.652 135.547 130.472 135.014 130.472 134.344C130.472 133.871 130.545 133.42 130.691 132.99C130.846 132.552 131.061 132.165 131.336 131.83C131.611 131.486 131.937 131.215 132.316 131.017C132.694 130.819 133.115 130.721 133.579 130.721C134.447 130.721 135.01 131.077 135.268 131.791L135.436 130.862H136.351L135.707 134.55C135.647 134.92 135.664 135.221 135.758 135.453C135.861 135.676 136.072 135.788 136.39 135.788C136.665 135.788 136.91 135.693 137.125 135.504C137.34 135.307 137.52 135.049 137.667 134.731C137.813 134.404 137.92 134.056 137.989 133.686C138.066 133.308 138.105 132.943 138.105 132.59C138.105 131.464 137.753 130.579 137.048 129.934C136.351 129.289 135.389 128.967 134.159 128.967C133.377 128.967 132.655 129.113 131.993 129.405C131.34 129.698 130.768 130.102 130.278 130.617C129.788 131.133 129.406 131.731 129.131 132.41C128.864 133.089 128.731 133.824 128.731 134.615C128.731 135.388 128.89 136.046 129.208 136.587C129.526 137.129 129.977 137.542 130.562 137.825C131.147 138.109 131.843 138.251 132.651 138.251C133.02 138.251 133.39 138.212 133.76 138.135C134.129 138.066 134.473 137.959 134.791 137.812L134.972 138.547C134.198 138.865 133.36 139.024 132.457 139.024ZM132.87 135.711C133.24 135.711 133.579 135.612 133.889 135.414C134.198 135.216 134.452 134.946 134.649 134.602C134.847 134.249 134.967 133.845 135.01 133.39C135.071 132.883 134.98 132.448 134.74 132.087C134.508 131.726 134.129 131.546 133.605 131.546C133.167 131.546 132.784 131.675 132.457 131.933C132.139 132.182 131.894 132.509 131.722 132.913C131.551 133.317 131.465 133.738 131.465 134.176C131.465 134.64 131.581 135.014 131.813 135.298C132.053 135.573 132.406 135.711 132.87 135.711ZM143.284 136.613C142.519 136.613 141.883 136.42 141.376 136.033C140.869 135.646 140.572 135.122 140.486 134.46H141.595C141.664 134.795 141.84 135.087 142.124 135.337C142.416 135.577 142.807 135.698 143.297 135.698C143.753 135.698 144.088 135.603 144.303 135.414C144.518 135.216 144.625 134.984 144.625 134.718C144.625 134.331 144.484 134.073 144.2 133.944C143.925 133.815 143.534 133.699 143.027 133.596C142.683 133.527 142.339 133.428 141.995 133.299C141.651 133.171 141.363 132.99 141.131 132.758C140.899 132.517 140.783 132.203 140.783 131.817C140.783 131.258 140.989 130.802 141.402 130.45C141.823 130.089 142.39 129.908 143.104 129.908C143.783 129.908 144.337 130.08 144.767 130.424C145.206 130.759 145.459 131.241 145.528 131.868H144.458C144.415 131.542 144.273 131.288 144.032 131.107C143.8 130.918 143.486 130.824 143.091 130.824C142.704 130.824 142.403 130.905 142.188 131.069C141.982 131.232 141.879 131.447 141.879 131.713C141.879 131.971 142.012 132.173 142.279 132.32C142.554 132.466 142.923 132.59 143.388 132.693C143.783 132.779 144.157 132.887 144.509 133.016C144.87 133.136 145.163 133.321 145.386 133.57C145.618 133.811 145.734 134.163 145.734 134.628C145.743 135.203 145.524 135.681 145.077 136.059C144.638 136.428 144.041 136.613 143.284 136.613ZM149.409 136.613C148.876 136.613 148.433 136.523 148.081 136.342C147.729 136.162 147.466 135.921 147.295 135.62C147.123 135.32 147.037 134.993 147.037 134.64C147.037 133.987 147.286 133.484 147.784 133.132C148.283 132.779 148.962 132.603 149.822 132.603H151.55V132.526C151.55 131.967 151.403 131.546 151.111 131.262C150.819 130.97 150.428 130.824 149.938 130.824C149.517 130.824 149.151 130.931 148.842 131.146C148.541 131.352 148.352 131.658 148.274 132.062H147.166C147.209 131.597 147.363 131.206 147.63 130.888C147.905 130.57 148.244 130.33 148.648 130.166C149.052 129.994 149.482 129.908 149.938 129.908C150.832 129.908 151.502 130.149 151.949 130.63C152.405 131.103 152.633 131.735 152.633 132.526V136.458H151.666L151.601 135.311C151.421 135.672 151.154 135.981 150.802 136.239C150.458 136.489 149.994 136.613 149.409 136.613ZM149.577 135.698C149.989 135.698 150.342 135.59 150.634 135.375C150.935 135.16 151.163 134.881 151.317 134.537C151.472 134.193 151.55 133.832 151.55 133.454V133.441H149.912C149.276 133.441 148.825 133.553 148.558 133.777C148.3 133.991 148.171 134.262 148.171 134.589C148.171 134.924 148.292 135.195 148.532 135.401C148.782 135.599 149.13 135.698 149.577 135.698ZM154.258 136.458V127.175H155.341V136.458H154.258ZM159.991 136.613C159.381 136.613 158.839 136.476 158.367 136.201C157.894 135.917 157.52 135.526 157.245 135.027C156.978 134.529 156.845 133.94 156.845 133.261C156.845 132.59 156.978 132.006 157.245 131.507C157.511 131 157.881 130.609 158.354 130.334C158.835 130.05 159.39 129.908 160.017 129.908C160.636 129.908 161.169 130.05 161.616 130.334C162.071 130.609 162.42 130.974 162.66 131.43C162.901 131.885 163.021 132.375 163.021 132.9C163.021 132.994 163.017 133.089 163.008 133.183C163.008 133.278 163.008 133.385 163.008 133.506H157.915C157.941 133.996 158.053 134.404 158.251 134.731C158.457 135.049 158.71 135.289 159.011 135.453C159.321 135.616 159.647 135.698 159.991 135.698C160.438 135.698 160.812 135.595 161.113 135.388C161.414 135.182 161.633 134.903 161.771 134.55H162.841C162.669 135.143 162.338 135.638 161.848 136.033C161.367 136.42 160.748 136.613 159.991 136.613ZM159.991 130.824C159.475 130.824 159.016 130.983 158.612 131.301C158.216 131.61 157.988 132.066 157.928 132.668H161.951C161.925 132.092 161.728 131.64 161.358 131.314C160.988 130.987 160.533 130.824 159.991 130.824ZM166.907 136.613C166.142 136.613 165.506 136.42 164.998 136.033C164.491 135.646 164.195 135.122 164.109 134.46H165.218C165.286 134.795 165.463 135.087 165.746 135.337C166.039 135.577 166.43 135.698 166.92 135.698C167.375 135.698 167.711 135.603 167.925 135.414C168.14 135.216 168.248 134.984 168.248 134.718C168.248 134.331 168.106 134.073 167.822 133.944C167.547 133.815 167.156 133.699 166.649 133.596C166.305 133.527 165.961 133.428 165.617 133.299C165.274 133.171 164.986 132.99 164.753 132.758C164.521 132.517 164.405 132.203 164.405 131.817C164.405 131.258 164.612 130.802 165.024 130.45C165.445 130.089 166.013 129.908 166.726 129.908C167.405 129.908 167.96 130.08 168.39 130.424C168.828 130.759 169.082 131.241 169.15 131.868H168.08C168.037 131.542 167.895 131.288 167.655 131.107C167.423 130.918 167.109 130.824 166.713 130.824C166.327 130.824 166.026 130.905 165.811 131.069C165.604 131.232 165.501 131.447 165.501 131.713C165.501 131.971 165.635 132.173 165.901 132.32C166.176 132.466 166.546 132.59 167.01 132.693C167.405 132.779 167.779 132.887 168.132 133.016C168.493 133.136 168.785 133.321 169.009 133.57C169.241 133.811 169.357 134.163 169.357 134.628C169.365 135.203 169.146 135.681 168.699 136.059C168.261 136.428 167.663 136.613 166.907 136.613ZM171.278 136.523C171.063 136.523 170.882 136.454 170.736 136.317C170.599 136.171 170.53 135.994 170.53 135.788C170.53 135.582 170.599 135.41 170.736 135.272C170.882 135.126 171.063 135.053 171.278 135.053C171.484 135.053 171.656 135.126 171.794 135.272C171.94 135.41 172.013 135.582 172.013 135.788C172.013 135.994 171.94 136.171 171.794 136.317C171.656 136.454 171.484 136.523 171.278 136.523ZM176.362 136.613C175.752 136.613 175.202 136.476 174.712 136.201C174.23 135.917 173.848 135.526 173.564 135.027C173.289 134.52 173.152 133.931 173.152 133.261C173.152 132.59 173.289 132.006 173.564 131.507C173.848 131 174.23 130.609 174.712 130.334C175.202 130.05 175.752 129.908 176.362 129.908C177.119 129.908 177.755 130.106 178.27 130.501C178.795 130.897 179.126 131.426 179.263 132.087H178.154C178.068 131.692 177.858 131.387 177.523 131.172C177.187 130.948 176.796 130.837 176.349 130.837C175.988 130.837 175.649 130.927 175.331 131.107C175.013 131.288 174.755 131.559 174.557 131.92C174.359 132.281 174.26 132.728 174.26 133.261C174.26 133.794 174.359 134.241 174.557 134.602C174.755 134.963 175.013 135.238 175.331 135.427C175.649 135.607 175.988 135.698 176.349 135.698C176.796 135.698 177.187 135.59 177.523 135.375C177.858 135.152 178.068 134.838 178.154 134.434H179.263C179.134 135.079 178.808 135.603 178.283 136.007C177.759 136.411 177.119 136.613 176.362 136.613ZM183.69 136.613C183.088 136.613 182.547 136.476 182.065 136.201C181.584 135.926 181.201 135.539 180.918 135.04C180.643 134.533 180.505 133.94 180.505 133.261C180.505 132.582 180.647 131.993 180.931 131.494C181.214 130.987 181.597 130.596 182.078 130.321C182.568 130.046 183.114 129.908 183.716 129.908C184.318 129.908 184.859 130.046 185.34 130.321C185.822 130.596 186.2 130.987 186.475 131.494C186.759 131.993 186.901 132.582 186.901 133.261C186.901 133.94 186.759 134.533 186.475 135.04C186.191 135.539 185.805 135.926 185.315 136.201C184.833 136.476 184.292 136.613 183.69 136.613ZM183.69 135.685C184.06 135.685 184.403 135.595 184.722 135.414C185.04 135.234 185.297 134.963 185.495 134.602C185.693 134.241 185.792 133.794 185.792 133.261C185.792 132.728 185.693 132.281 185.495 131.92C185.306 131.559 185.052 131.288 184.734 131.107C184.416 130.927 184.077 130.837 183.716 130.837C183.346 130.837 183.002 130.927 182.684 131.107C182.366 131.288 182.108 131.559 181.911 131.92C181.713 132.281 181.614 132.728 181.614 133.261C181.614 133.794 181.713 134.241 181.911 134.602C182.108 134.963 182.362 135.234 182.671 135.414C182.989 135.595 183.329 135.685 183.69 135.685ZM188.407 136.458V130.063H189.387L189.464 130.991C189.67 130.648 189.945 130.381 190.289 130.192C190.633 130.003 191.02 129.908 191.45 129.908C191.957 129.908 192.391 130.011 192.752 130.218C193.122 130.424 193.405 130.738 193.603 131.159C193.826 130.772 194.132 130.467 194.518 130.244C194.914 130.02 195.339 129.908 195.795 129.908C196.56 129.908 197.17 130.14 197.626 130.605C198.081 131.06 198.309 131.765 198.309 132.719V136.458H197.239V132.835C197.239 132.173 197.106 131.675 196.839 131.34C196.573 131.004 196.19 130.837 195.692 130.837C195.176 130.837 194.746 131.039 194.402 131.443C194.067 131.838 193.899 132.405 193.899 133.145V136.458H192.816V132.835C192.816 132.173 192.683 131.675 192.417 131.34C192.15 131.004 191.768 130.837 191.269 130.837C190.762 130.837 190.336 131.039 189.993 131.443C189.657 131.838 189.49 132.405 189.49 133.145V136.458H188.407Z" fill="white"/>
<path d="M50.6057 216.903L50.7604 214.93L49.1615 216.052L48.7102 215.266L50.5025 214.479L48.7231 213.705L49.1486 212.945L50.7733 214.066L50.5928 212.094H51.4696L51.2762 214.066L52.8879 212.945L53.3005 213.692L51.5211 214.492L53.3134 215.278L52.8879 216.039L51.2762 214.93L51.4567 216.903H50.6057ZM56.7631 216.903L56.9178 214.93L55.3189 216.052L54.8677 215.266L56.6599 214.479L54.8805 213.705L55.3061 212.945L56.9307 214.066L56.7502 212.094H57.627L57.4336 214.066L59.0453 212.945L59.4579 213.692L57.6786 214.492L59.4708 215.278L59.0453 216.039L57.4336 214.93L57.6141 216.903H56.7631ZM62.9205 216.903L63.0752 214.93L61.4764 216.052L61.0251 215.266L62.8173 214.479L61.038 213.705L61.4635 212.945L63.0881 214.066L62.9076 212.094H63.7844L63.591 214.066L65.2027 212.945L65.6154 213.692L63.836 214.492L65.6282 215.278L65.2027 216.039L63.591 214.93L63.7715 216.903H62.9205ZM69.0779 216.903L69.2326 214.93L67.6338 216.052L67.1825 215.266L68.9748 214.479L67.1954 213.705L67.6209 212.945L69.2455 214.066L69.065 212.094H69.9418L69.7484 214.066L71.3602 212.945L71.7728 213.692L69.9934 214.492L71.7857 215.278L71.3602 216.039L69.7484 214.93L69.9289 216.903H69.0779ZM75.2353 216.903L75.39 214.93L73.7912 216.052L73.3399 215.266L75.1322 214.479L73.3528 213.705L73.7783 212.945L75.4029 214.066L75.2224 212.094H76.0992L75.9058 214.066L77.5176 212.945L77.9302 213.692L76.1508 214.492L77.9431 215.278L77.5176 216.039L75.9058 214.93L76.0863 216.903H75.2353ZM81.3927 216.903L81.5475 214.93L79.9486 216.052L79.4973 215.266L81.2896 214.479L79.5102 213.705L79.9357 212.945L81.5604 214.066L81.3798 212.094H82.2566L82.0632 214.066L83.675 212.945L84.0876 213.692L82.3082 214.492L84.1005 215.278L83.675 216.039L82.0632 214.93L82.2437 216.903H81.3927ZM87.5501 216.903L87.7049 214.93L86.106 216.052L85.6547 215.266L87.447 214.479L85.6676 213.705L86.0931 212.945L87.7178 214.066L87.5372 212.094H88.414L88.2206 214.066L89.8324 212.945L90.245 213.692L88.4656 214.492L90.2579 215.278L89.8324 216.039L88.2206 214.93L88.4011 216.903H87.5501Z" fill="white"/>
<path d="M31.9155 181.587V172.562H35.0745C35.7794 172.562 36.3639 172.682 36.8281 172.923C37.2923 173.155 37.6361 173.477 37.8596 173.89C38.0917 174.294 38.2078 174.754 38.2078 175.269C38.2078 175.759 38.096 176.211 37.8725 176.623C37.6576 177.027 37.3181 177.35 36.8539 177.59C36.3897 177.831 35.7966 177.951 35.0745 177.951H33.2822V181.587H31.9155ZM33.2822 176.829H35.01C35.6548 176.829 36.1146 176.692 36.3897 176.417C36.6734 176.133 36.8152 175.751 36.8152 175.269C36.8152 174.771 36.6734 174.384 36.3897 174.109C36.1146 173.825 35.6548 173.683 35.01 173.683H33.2822V176.829ZM41.3208 181.742C40.7792 181.742 40.3322 181.652 39.9798 181.471C39.6274 181.291 39.3652 181.054 39.1933 180.762C39.0213 180.461 38.9354 180.135 38.9354 179.782C38.9354 179.163 39.1761 178.673 39.6574 178.312C40.1388 177.951 40.8265 177.771 41.7205 177.771H43.3967V177.655C43.3967 177.156 43.2592 176.782 42.9841 176.533C42.7176 176.284 42.3695 176.159 41.9397 176.159C41.5615 176.159 41.2305 176.254 40.9469 176.443C40.6718 176.623 40.5042 176.894 40.444 177.255H39.0772C39.1202 176.791 39.2749 176.395 39.5414 176.069C39.8165 175.734 40.1603 175.48 40.5729 175.308C40.9941 175.127 41.454 175.037 41.9526 175.037C42.8466 175.037 43.5386 175.274 44.0285 175.746C44.5185 176.211 44.7635 176.847 44.7635 177.655V181.587H43.5772L43.4612 180.491C43.2807 180.844 43.0185 181.14 42.6747 181.381C42.3308 181.622 41.8795 181.742 41.3208 181.742ZM41.5916 180.633C41.9612 180.633 42.2706 180.547 42.5199 180.375C42.7778 180.195 42.9755 179.958 43.1131 179.666C43.2592 179.374 43.3494 179.052 43.3838 178.699H41.8623C41.3208 178.699 40.934 178.794 40.7019 178.983C40.4784 179.172 40.3666 179.408 40.3666 179.692C40.3666 179.984 40.4741 180.216 40.689 180.388C40.9125 180.552 41.2133 180.633 41.5916 180.633ZM48.9101 181.742C48.1021 181.742 47.4359 181.544 46.9116 181.149C46.3872 180.754 46.0863 180.229 46.009 179.576H47.3886C47.4574 179.868 47.6207 180.122 47.8786 180.337C48.1365 180.543 48.476 180.646 48.8972 180.646C49.3099 180.646 49.6107 180.56 49.7998 180.388C49.9889 180.216 50.0835 180.019 50.0835 179.795C50.0835 179.468 49.9503 179.249 49.6838 179.138C49.4259 179.017 49.0649 178.91 48.6007 178.815C48.2396 178.738 47.8786 178.635 47.5176 178.506C47.1651 178.377 46.8686 178.196 46.6279 177.964C46.3958 177.723 46.2798 177.401 46.2798 176.997C46.2798 176.438 46.4947 175.974 46.9245 175.605C47.3543 175.226 47.956 175.037 48.7296 175.037C49.4431 175.037 50.019 175.209 50.4574 175.553C50.9044 175.897 51.1666 176.383 51.244 177.01H49.9288C49.8858 176.735 49.7568 176.52 49.5419 176.365C49.3356 176.211 49.0563 176.133 48.7038 176.133C48.36 176.133 48.0935 176.206 47.9044 176.352C47.7153 176.49 47.6207 176.67 47.6207 176.894C47.6207 177.117 47.7497 177.294 48.0076 177.423C48.274 177.552 48.6222 177.668 49.052 177.771C49.4818 177.865 49.8772 177.977 50.2382 178.106C50.6079 178.226 50.9044 178.407 51.1279 178.648C51.3514 178.888 51.4632 179.241 51.4632 179.705C51.4718 180.289 51.244 180.775 50.7798 181.162C50.3242 181.549 49.701 181.742 48.9101 181.742ZM55.5083 181.742C54.7002 181.742 54.034 181.544 53.5097 181.149C52.9853 180.754 52.6845 180.229 52.6071 179.576H53.9868C54.0555 179.868 54.2189 180.122 54.4767 180.337C54.7346 180.543 55.0742 180.646 55.4954 180.646C55.908 180.646 56.2088 180.56 56.398 180.388C56.5871 180.216 56.6816 180.019 56.6816 179.795C56.6816 179.468 56.5484 179.249 56.2819 179.138C56.024 179.017 55.663 178.91 55.1988 178.815C54.8378 178.738 54.4767 178.635 54.1157 178.506C53.7633 178.377 53.4667 178.196 53.226 177.964C52.9939 177.723 52.8779 177.401 52.8779 176.997C52.8779 176.438 53.0928 175.974 53.5226 175.605C53.9524 175.226 54.5541 175.037 55.3277 175.037C56.0412 175.037 56.6172 175.209 57.0556 175.553C57.5025 175.897 57.7647 176.383 57.8421 177.01H56.5269C56.4839 176.735 56.355 176.52 56.1401 176.365C55.9338 176.211 55.6544 176.133 55.302 176.133C54.9581 176.133 54.6916 176.206 54.5025 176.352C54.3134 176.49 54.2189 176.67 54.2189 176.894C54.2189 177.117 54.3478 177.294 54.6057 177.423C54.8722 177.552 55.2203 177.668 55.6501 177.771C56.0799 177.865 56.4753 177.977 56.8364 178.106C57.206 178.226 57.5025 178.407 57.726 178.648C57.9495 178.888 58.0613 179.241 58.0613 179.705C58.0699 180.289 57.8421 180.775 57.3779 181.162C56.9223 181.549 56.2991 181.742 55.5083 181.742ZM60.6158 181.587L58.7333 175.192H60.1001L61.3379 180.014L62.7304 175.192H64.2519L65.6445 180.014L66.8823 175.192H68.2491L66.3666 181.587H64.9611L63.4912 176.559L62.0213 181.587H60.6158ZM72.1272 181.742C71.5169 181.742 70.9667 181.605 70.4767 181.33C69.9954 181.046 69.6128 180.655 69.3292 180.156C69.0455 179.649 68.9037 179.06 68.9037 178.39C68.9037 177.719 69.0455 177.135 69.3292 176.636C69.6214 176.129 70.0126 175.738 70.5025 175.463C70.9925 175.179 71.5384 175.037 72.1401 175.037C72.7504 175.037 73.2962 175.179 73.7776 175.463C74.2676 175.738 74.6544 176.129 74.9381 176.636C75.2304 177.135 75.3765 177.719 75.3765 178.39C75.3765 179.06 75.2304 179.649 74.9381 180.156C74.6544 180.655 74.2676 181.046 73.7776 181.33C73.2876 181.605 72.7375 181.742 72.1272 181.742ZM72.1272 180.569C72.4538 180.569 72.7547 180.487 73.0298 180.324C73.3134 180.16 73.5412 179.92 73.7132 179.602C73.8851 179.275 73.971 178.871 73.971 178.39C73.971 177.908 73.8851 177.509 73.7132 177.191C73.5498 176.864 73.3263 176.619 73.0427 176.456C72.7676 176.292 72.4667 176.211 72.1401 176.211C71.8134 176.211 71.5083 176.292 71.2246 176.456C70.9495 176.619 70.726 176.864 70.5541 177.191C70.3822 177.509 70.2962 177.908 70.2962 178.39C70.2962 178.871 70.3822 179.275 70.5541 179.602C70.726 179.92 70.9495 180.16 71.2246 180.324C71.4997 180.487 71.8005 180.569 72.1272 180.569ZM76.8546 181.587V175.192H78.0795L78.1955 176.404C78.419 175.983 78.7285 175.652 79.1239 175.411C79.5279 175.162 80.0136 175.037 80.5809 175.037V176.468H80.207C79.8288 176.468 79.4892 176.533 79.1884 176.662C78.8961 176.782 78.6597 176.993 78.4792 177.294C78.3073 177.586 78.2213 177.994 78.2213 178.519V181.587H76.8546ZM84.4906 181.742C83.8716 181.742 83.3258 181.596 82.853 181.304C82.3802 181.011 82.0106 180.612 81.7441 180.105C81.4777 179.597 81.3444 179.021 81.3444 178.377C81.3444 177.732 81.4777 177.16 81.7441 176.662C82.0106 176.155 82.3802 175.759 82.853 175.476C83.3344 175.183 83.8845 175.037 84.5035 175.037C85.0106 175.037 85.4533 175.136 85.8315 175.334C86.2184 175.531 86.5192 175.811 86.7341 176.172V172.304H88.1009V181.587H86.876L86.7341 180.595C86.5278 180.895 86.2442 181.162 85.8831 181.394C85.5221 181.626 85.0579 181.742 84.4906 181.742ZM84.7355 180.556C85.3201 180.556 85.7972 180.354 86.1668 179.95C86.545 179.546 86.7341 179.026 86.7341 178.39C86.7341 177.745 86.545 177.225 86.1668 176.829C85.7972 176.425 85.3201 176.223 84.7355 176.223C84.151 176.223 83.6696 176.425 83.2914 176.829C82.9132 177.225 82.7241 177.745 82.7241 178.39C82.7241 178.811 82.81 179.185 82.982 179.511C83.1539 179.838 83.3903 180.096 83.6911 180.285C84.0006 180.466 84.3487 180.556 84.7355 180.556Z" fill="white" fill-opacity="0.8"/>
<line x1="95.6344" y1="204" x2="95.6344" y2="225.571" stroke="#096EAE" stroke-width="1.26889"/>
</svg>
