<svg width="16" height="16" viewBox="0 0 16 16" fill="none" xmlns="http://www.w3.org/2000/svg">
<path d="M12.5638 3.86523L14.1456 14.1664L3.52745 15.8203L1.81836 5.48321L12.5638 3.86523Z" fill="url(#paint0_linear_2288_129)"/>
<path d="M1.81836 5.48319L2.56381 1.7978L13.2911 0.10791L12.5638 3.86521L1.81836 5.48319Z" fill="#EF463E"/>
<path d="M13.2907 0.10791L14.8726 10.5169L14.1453 14.1663L12.5635 3.86521L13.2907 0.10791Z" fill="#760D16"/>
<path d="M11.4182 12.5303C11.3273 12.4224 11.2182 12.3505 11.0909 12.3146C10.9273 12.2606 10.7455 12.2426 10.5818 12.2426C10.3637 12.2426 10.1455 12.2606 9.92729 12.2966L7.12729 12.764C7.18184 12.4764 7.29093 12.1887 7.45456 11.919C7.72729 11.4337 8.03638 10.9842 8.38184 10.5348L8.70911 10.1033C8.76365 10.0314 8.83638 9.94152 8.92729 9.81568C9.56365 8.98871 9.96365 8.30557 10.1091 7.76624C10.2 7.46062 10.2546 7.155 10.2727 6.84939C10.2727 6.7595 10.2727 6.68759 10.2727 6.5977C10.2727 6.38197 10.2546 6.16624 10.2182 5.95051C10.2 5.78871 10.1455 5.62691 10.0727 5.46512C10.0182 5.33927 9.92729 5.24939 9.8182 5.17748C9.67274 5.10557 9.50911 5.06961 9.32729 5.08759C9.10911 5.08759 8.90911 5.10557 8.70911 5.14152L5.47274 5.68085C5.16365 5.7168 4.85456 5.84265 4.60002 6.0404C4.45456 6.16624 4.38184 6.36399 4.38184 6.56175C4.38184 6.61568 4.38184 6.66961 4.40002 6.72354C4.43638 6.97523 4.58184 7.19096 4.8182 7.29882C4.98184 7.37073 5.14547 7.38871 5.30911 7.38871C5.45456 7.38871 5.60002 7.37074 5.74547 7.35276L8.45456 6.90332C8.45456 6.95725 8.45456 6.99321 8.45456 7.04714C8.45456 7.20894 8.4182 7.38871 8.36365 7.53253C8.2182 7.87411 8.00002 8.1977 7.76365 8.46736C7.67274 8.57523 7.52729 8.755 7.34547 8.98871C6.74547 9.67186 6.2182 10.4269 5.78184 11.2359C5.56365 11.6314 5.4182 12.0629 5.30911 12.4943C5.25456 12.728 5.23638 12.9617 5.23638 13.1955C5.23638 13.3573 5.25456 13.5011 5.29093 13.6629C5.30911 13.8426 5.38184 14.0404 5.45456 14.2022C5.50911 14.328 5.6182 14.4359 5.72729 14.5078C5.87274 14.5617 6.03638 14.5977 6.20002 14.5797C6.56365 14.5617 6.94547 14.5258 7.30911 14.4539L10.2364 13.9505C10.7637 13.8606 11.1273 13.7348 11.3273 13.573C11.4909 13.4471 11.5818 13.2494 11.5818 13.0337C11.5818 12.9797 11.5818 12.9078 11.5637 12.8539C11.5637 12.764 11.5091 12.6381 11.4182 12.5303Z" fill="white"/>
<defs>
<linearGradient id="paint0_linear_2288_129" x1="7.21041" y1="4.83613" x2="8.8752" y2="15.0067" gradientUnits="userSpaceOnUse">
<stop stop-color="#D92231"/>
<stop offset="1" stop-color="#BA2234"/>
</linearGradient>
</defs>
</svg>
