<svg width="20" height="15" viewBox="0 0 20 15" fill="none" xmlns="http://www.w3.org/2000/svg">
<path d="M8.32279 2.31356C8.96781 1.64148 9.86581 1.22468 10.859 1.22468C12.1792 1.22468 13.3311 1.96086 13.9444 3.05373C14.4775 2.81556 15.0675 2.68308 15.6883 2.68308C18.0695 2.68308 20 4.63037 20 7.03237C20 9.43465 18.0695 11.3819 15.6883 11.3819C15.3977 11.3819 15.1137 11.3529 14.839 11.2973C14.2989 12.2609 13.2695 12.9119 12.088 12.9119C11.5934 12.9119 11.1256 12.7976 10.7091 12.5945C10.1615 13.8825 8.88576 14.7856 7.39886 14.7856C5.85043 14.7856 4.53077 13.8059 4.02422 12.4318C3.80285 12.4788 3.5735 12.5033 3.33818 12.5033C1.49459 12.5033 0 10.9933 0 9.13037C0 7.88194 0.67151 6.79191 1.66923 6.20872C1.46382 5.73607 1.34957 5.21442 1.34957 4.66599C1.34957 2.52354 3.08889 0.786783 5.23419 0.786783C6.49373 0.786783 7.61311 1.38564 8.32279 2.31356Z" fill="#00A1E0"/>
<path d="M2.8971 8.04567C2.88456 8.07844 2.90166 8.08527 2.90565 8.09097C2.94325 8.11832 2.98143 8.13798 3.01989 8.15992C3.22388 8.26818 3.41647 8.2998 3.6179 8.2998C4.02815 8.2998 4.28285 8.08157 4.28285 7.73029V7.72345C4.28285 7.39867 3.99539 7.28072 3.72559 7.19553L3.69055 7.18414C3.48713 7.11804 3.31163 7.06106 3.31163 6.92715V6.92003C3.31163 6.8055 3.41419 6.72117 3.57317 6.72117C3.7498 6.72117 3.95949 6.77986 4.09453 6.85451C4.09453 6.85451 4.13414 6.88015 4.14867 6.84168C4.15664 6.82117 4.22502 6.63713 4.23214 6.61718C4.23983 6.59553 4.22616 6.57958 4.2122 6.57103C4.05807 6.4773 3.84496 6.41319 3.62445 6.41319L3.58342 6.41348C3.20792 6.41348 2.94582 6.64026 2.94582 6.96533V6.97217C2.94582 7.3149 3.23499 7.42602 3.50593 7.50351L3.54952 7.5169C3.74696 7.57758 3.91704 7.62972 3.91704 7.76875V7.77559C3.91704 7.90265 3.8065 7.99724 3.62815 7.99724C3.55892 7.99724 3.33812 7.99582 3.09966 7.8451C3.07089 7.82829 3.05408 7.81604 3.03186 7.80265C3.02018 7.79525 2.99083 7.78243 2.97801 7.82117L2.8971 8.04567Z" fill="white"/>
<path d="M8.90198 8.04567C8.88945 8.07844 8.90654 8.08527 8.91053 8.09097C8.94813 8.11832 8.98631 8.13798 9.02477 8.15992C9.22876 8.26818 9.42135 8.2998 9.62278 8.2998C10.033 8.2998 10.2877 8.08157 10.2877 7.73029V7.72345C10.2877 7.39867 10.0003 7.28072 9.73047 7.19553L9.69543 7.18414C9.49201 7.11804 9.31651 7.06106 9.31651 6.92715V6.92003C9.31651 6.8055 9.41907 6.72117 9.57805 6.72117C9.75469 6.72117 9.96437 6.77986 10.0994 6.85451C10.0994 6.85451 10.139 6.88015 10.1535 6.84168C10.1615 6.82117 10.2299 6.63713 10.237 6.61718C10.2447 6.59553 10.231 6.57958 10.2171 6.57103C10.0629 6.4773 9.84984 6.41319 9.62933 6.41319L9.58831 6.41348C9.21281 6.41348 8.9507 6.64026 8.9507 6.96533V6.97217C8.9507 7.3149 9.23987 7.42602 9.51081 7.50351L9.5544 7.5169C9.75184 7.57758 9.92221 7.62972 9.92221 7.76875V7.77559C9.92221 7.90265 9.81138 7.99724 9.63304 7.99724C9.5638 7.99724 9.34301 7.99582 9.10455 7.8451C9.07577 7.82829 9.05868 7.81661 9.03702 7.80265C9.02962 7.79781 8.99486 7.78442 8.98289 7.82117L8.90198 8.04567Z" fill="white"/>
<path d="M13.0024 7.35784C13.0024 7.55642 12.9654 7.71283 12.8925 7.82337C12.8204 7.93277 12.7113 7.98605 12.5591 7.98605C12.4067 7.98605 12.2982 7.93306 12.2272 7.82337C12.1554 7.71312 12.119 7.55642 12.119 7.35784C12.119 7.15955 12.1554 7.00343 12.2272 6.89403C12.2982 6.78576 12.4067 6.73306 12.5591 6.73306C12.7113 6.73306 12.8204 6.78576 12.8927 6.89403C12.9654 7.00343 13.0024 7.15955 13.0024 7.35784ZM13.3449 6.98975C13.3113 6.87608 13.2588 6.77579 13.189 6.69232C13.1192 6.60856 13.0309 6.54132 12.9261 6.49232C12.8215 6.4436 12.6979 6.41881 12.5591 6.41881C12.4201 6.41881 12.2964 6.4436 12.1919 6.49232C12.087 6.54132 11.9987 6.60856 11.9286 6.69232C11.8591 6.77608 11.8067 6.87636 11.7728 6.98975C11.7395 7.10286 11.7227 7.22651 11.7227 7.35784C11.7227 7.48918 11.7395 7.61312 11.7728 7.72594C11.8067 7.83933 11.8588 7.93961 11.9289 8.02337C11.9987 8.10713 12.0873 8.17408 12.1919 8.22166C12.2967 8.26924 12.4201 8.29346 12.5591 8.29346C12.6979 8.29346 12.8212 8.26924 12.9261 8.22166C13.0306 8.17408 13.1192 8.10713 13.189 8.02337C13.2588 7.9399 13.3113 7.83961 13.3449 7.72594C13.3785 7.61283 13.3953 7.4889 13.3953 7.35784C13.3953 7.22679 13.3785 7.10286 13.3449 6.98975Z" fill="white"/>
<path fill-rule="evenodd" clip-rule="evenodd" d="M16.1577 7.93294C16.1463 7.8996 16.1141 7.91214 16.1141 7.91214C16.0642 7.93123 16.0112 7.94889 15.9548 7.95772C15.8976 7.96655 15.8346 7.97111 15.7671 7.97111C15.6013 7.97111 15.4696 7.92183 15.3753 7.82439C15.2807 7.72695 15.2278 7.5694 15.2283 7.3563C15.2289 7.16228 15.2756 7.01641 15.3597 6.9053C15.4431 6.79476 15.5702 6.73806 15.7397 6.73806C15.881 6.73806 15.9887 6.7543 16.1015 6.78992C16.1015 6.78992 16.1286 6.8016 16.1414 6.76627C16.1713 6.68308 16.1936 6.62353 16.2255 6.53208C16.2346 6.50616 16.2124 6.49504 16.2044 6.49191C16.1599 6.47453 16.0551 6.44633 15.9759 6.43436C15.9018 6.42296 15.8152 6.41698 15.7189 6.41698C15.575 6.41698 15.4468 6.44148 15.3372 6.49049C15.2278 6.5392 15.1349 6.60644 15.0614 6.6902C14.9879 6.77396 14.932 6.87425 14.8947 6.98764C14.8577 7.10074 14.8389 7.22496 14.8389 7.3563C14.8389 7.64034 14.9155 7.86997 15.0668 8.03806C15.2184 8.20673 15.446 8.29248 15.7429 8.29248C15.9184 8.29248 16.0984 8.25687 16.2278 8.20587C16.2278 8.20587 16.2525 8.1939 16.2417 8.16513L16.1577 7.93294Z" fill="white"/>
<path fill-rule="evenodd" clip-rule="evenodd" d="M16.7577 7.16773C16.7739 7.05748 16.8044 6.96574 16.8514 6.89423C16.9223 6.78568 17.0306 6.72614 17.1827 6.72614C17.3349 6.72614 17.4354 6.78597 17.5075 6.89423C17.5554 6.96574 17.5762 7.06146 17.5844 7.16773H16.7577ZM17.9107 6.92528C17.8816 6.8156 17.8095 6.70477 17.7622 6.65406C17.6876 6.57371 17.6146 6.51759 17.5423 6.48625C17.4477 6.44579 17.3343 6.41901 17.2101 6.41901C17.0654 6.41901 16.934 6.44323 16.8275 6.49337C16.7206 6.54352 16.6309 6.61189 16.5605 6.69708C16.4901 6.78198 16.4372 6.88312 16.4035 6.99793C16.3696 7.11218 16.3525 7.23668 16.3525 7.36802C16.3525 7.50163 16.3702 7.62614 16.4052 7.7381C16.4406 7.85092 16.497 7.95035 16.5733 8.03269C16.6494 8.1156 16.7474 8.18055 16.8648 8.22585C16.9813 8.27087 17.1229 8.29423 17.2856 8.29394C17.6203 8.2928 17.7967 8.21816 17.8693 8.17799C17.8822 8.17087 17.8944 8.15833 17.879 8.12243L17.8033 7.91018C17.7919 7.87856 17.7597 7.89024 17.7597 7.89024C17.6768 7.92101 17.5588 7.97628 17.2839 7.97571C17.1041 7.97542 16.9708 7.92243 16.8873 7.83953C16.8015 7.75463 16.7597 7.62984 16.7523 7.45377L17.9115 7.45491C17.9115 7.45491 17.942 7.45434 17.9451 7.42471C17.9463 7.41218 17.985 7.18654 17.9107 6.92528Z" fill="white"/>
<path fill-rule="evenodd" clip-rule="evenodd" d="M7.47251 7.16773C7.48904 7.05748 7.51923 6.96574 7.56624 6.89423C7.63718 6.78568 7.74545 6.72614 7.89758 6.72614C8.04972 6.72614 8.15029 6.78597 8.22265 6.89423C8.27023 6.96574 8.29103 7.06146 8.29929 7.16773H7.47251ZM8.62522 6.92528C8.59616 6.8156 8.52436 6.70477 8.47707 6.65406C8.40243 6.57371 8.32949 6.51759 8.25713 6.48625C8.16254 6.44579 8.04915 6.41901 7.92493 6.41901C7.78049 6.41901 7.64886 6.44323 7.54231 6.49337C7.43547 6.54352 7.34573 6.61189 7.27536 6.69708C7.20499 6.78198 7.152 6.88312 7.11838 6.99793C7.08476 7.11218 7.06738 7.23668 7.06738 7.36802C7.06738 7.50163 7.08505 7.62614 7.12009 7.7381C7.15542 7.85092 7.21183 7.95035 7.28818 8.03269C7.36425 8.1156 7.46225 8.18055 7.57963 8.22585C7.69616 8.27087 7.83775 8.29423 8.00043 8.29394C8.33519 8.2928 8.51154 8.21816 8.58419 8.17799C8.59701 8.17087 8.60926 8.15833 8.59388 8.12243L8.51838 7.91018C8.5067 7.87856 8.47451 7.89024 8.47451 7.89024C8.3916 7.92101 8.27394 7.97628 7.99844 7.97571C7.81895 7.97542 7.68562 7.92243 7.60214 7.83953C7.51639 7.75463 7.47451 7.62984 7.4671 7.45377L8.62636 7.45491C8.62636 7.45491 8.65684 7.45434 8.65998 7.42471C8.66112 7.41218 8.69986 7.18654 8.62522 6.92528Z" fill="white"/>
<path d="M4.96647 7.92651C4.92117 7.89032 4.9149 7.88121 4.89951 7.85784C4.87672 7.82223 4.86504 7.77152 4.86504 7.70713C4.86504 7.60514 4.89866 7.53192 4.96846 7.48263C4.96761 7.48292 5.06818 7.39574 5.30464 7.39887C5.47074 7.40115 5.61917 7.42565 5.61917 7.42565V7.95272H5.61946C5.61946 7.95272 5.47216 7.98434 5.30635 7.99431C5.07045 8.00856 4.96561 7.92622 4.96647 7.92651ZM5.42772 7.11198C5.38071 7.10856 5.31974 7.10656 5.24681 7.10656C5.14738 7.10656 5.05137 7.1191 4.96134 7.14331C4.87074 7.16753 4.78926 7.20542 4.71917 7.25557C4.6488 7.30599 4.59211 7.37038 4.55108 7.44673C4.51006 7.52309 4.48926 7.61312 4.48926 7.71397C4.48926 7.81653 4.50692 7.90571 4.54225 7.97864C4.57758 8.05186 4.62857 8.11283 4.69353 8.15984C4.75792 8.20685 4.83741 8.24132 4.92971 8.26212C5.0206 8.28292 5.12373 8.29346 5.23655 8.29346C5.35535 8.29346 5.47387 8.28377 5.58869 8.26411C5.70236 8.24474 5.84196 8.21653 5.88071 8.2077C5.91917 8.19859 5.96191 8.1869 5.96191 8.1869C5.99068 8.17978 5.9884 8.14901 5.9884 8.14901L5.98783 7.0889C5.98783 6.85642 5.92572 6.68406 5.8035 6.57722C5.68185 6.47067 5.50265 6.41682 5.27102 6.41682C5.18413 6.41682 5.04424 6.42878 4.96048 6.44559C4.96048 6.44559 4.70721 6.4946 4.60293 6.57608C4.60293 6.57608 4.58014 6.59032 4.59268 6.62223L4.67473 6.84274C4.68498 6.87123 4.71262 6.86155 4.71262 6.86155C4.71262 6.86155 4.72145 6.85813 4.73171 6.85215C4.95478 6.73078 5.23684 6.73448 5.23684 6.73448C5.36219 6.73448 5.45849 6.75955 5.52345 6.80941C5.58669 6.85784 5.61889 6.93106 5.61889 7.08548V7.13448C5.51917 7.12024 5.42772 7.11198 5.42772 7.11198Z" fill="white"/>
<path fill-rule="evenodd" clip-rule="evenodd" d="M14.7784 6.51532C14.7872 6.48911 14.7687 6.47658 14.761 6.47373C14.7413 6.46603 14.6428 6.44524 14.5667 6.44039C14.4211 6.43156 14.3402 6.45606 14.2678 6.48854C14.196 6.52102 14.1163 6.57344 14.0718 6.63299V6.49196C14.0718 6.4723 14.0579 6.45663 14.0385 6.45663H13.7413C13.722 6.45663 13.708 6.4723 13.708 6.49196V8.22102C13.708 8.24039 13.724 8.25635 13.7433 8.25635H14.0479C14.0673 8.25635 14.0829 8.24039 14.0829 8.22102V7.3572C14.0829 7.24125 14.0958 7.12558 14.1214 7.05293C14.1465 6.98113 14.1807 6.92358 14.2228 6.88227C14.2653 6.84125 14.3134 6.81247 14.3661 6.79623C14.42 6.77971 14.4795 6.7743 14.5217 6.7743C14.5824 6.7743 14.649 6.78997 14.649 6.78997C14.6713 6.79253 14.6838 6.77885 14.6912 6.75863C14.7111 6.70564 14.7676 6.54695 14.7784 6.51532Z" fill="white"/>
<path fill-rule="evenodd" clip-rule="evenodd" d="M11.9183 5.71369C11.8813 5.7023 11.8477 5.69461 11.8038 5.68634C11.7593 5.67837 11.7064 5.67438 11.6462 5.67438C11.4366 5.67438 11.2713 5.73364 11.1554 5.85045C11.04 5.96669 10.9616 6.14361 10.9223 6.37637L10.9081 6.45472H10.6448C10.6448 6.45472 10.6129 6.45358 10.6061 6.48834L10.563 6.72965C10.5599 6.75244 10.5699 6.76697 10.6007 6.76697H10.8568L10.5969 8.21768C10.5767 8.33449 10.5534 8.4305 10.5274 8.50344C10.5021 8.57523 10.4773 8.62908 10.4465 8.6684C10.4169 8.706 10.389 8.73392 10.3405 8.75016C10.3007 8.76355 10.2545 8.76982 10.2041 8.76982C10.1762 8.76982 10.1388 8.76526 10.1112 8.75956C10.0838 8.75415 10.0693 8.74817 10.0485 8.73934C10.0485 8.73934 10.0186 8.72794 10.0066 8.75785C9.99723 8.78264 9.92886 8.97039 9.9206 8.99347C9.91262 9.01654 9.92402 9.03449 9.93855 9.03991C9.97273 9.05187 9.99809 9.05985 10.0445 9.07096C10.1089 9.08606 10.1633 9.08691 10.2143 9.08691C10.3209 9.08691 10.4183 9.07181 10.4989 9.04275C10.5799 9.01341 10.6505 8.96241 10.7132 8.89347C10.7807 8.81882 10.8232 8.74076 10.8636 8.63392C10.9038 8.52851 10.9383 8.39746 10.9656 8.24475L11.2269 6.76697H11.6086C11.6086 6.76697 11.6408 6.76811 11.6474 6.73307L11.6907 6.49204C11.6935 6.46897 11.6838 6.45472 11.6528 6.45472H11.2821C11.2841 6.44646 11.3009 6.31597 11.3434 6.19318C11.3616 6.14105 11.3958 6.09859 11.4246 6.06954C11.4531 6.04105 11.4858 6.02082 11.5217 6.00914C11.5585 5.99717 11.6004 5.99147 11.6462 5.99147C11.681 5.99147 11.7155 5.99546 11.7414 6.00087C11.7773 6.00857 11.7913 6.01256 11.8007 6.0154C11.8385 6.0268 11.8437 6.01569 11.8511 5.99746L11.9397 5.75415C11.9488 5.72794 11.9263 5.71683 11.9183 5.71369Z" fill="white"/>
<path fill-rule="evenodd" clip-rule="evenodd" d="M6.74 8.22082C6.74 8.24019 6.72604 8.25586 6.70667 8.25586H6.39926C6.37989 8.25586 6.36621 8.24019 6.36621 8.22082V5.74674C6.36621 5.72737 6.37989 5.7117 6.39926 5.7117H6.70667C6.72604 5.7117 6.74 5.72737 6.74 5.74674V8.22082Z" fill="white"/>
</svg>
