<svg width="425" height="267" viewBox="0 0 425 267" fill="none" xmlns="http://www.w3.org/2000/svg">
<line x1="4.22994e-08" y1="54.5" x2="425" y2="54.5" stroke="black" stroke-opacity="0.1"/>
<line x1="4.22994e-08" y1="134.5" x2="425" y2="134.5" stroke="black" stroke-opacity="0.1"/>
<line x1="4.22994e-08" y1="210.5" x2="425" y2="210.5" stroke="black" stroke-opacity="0.1"/>
<g clip-path="url(#clip0_2439_144)">
<path d="M57.0576 27.9976L58.8164 21.582C57.7324 19.7002 57.1597 17.5732 57.1597 15.3848C57.1597 8.55371 62.7227 2.99707 69.5474 2.99707C72.8608 2.99707 75.9697 4.28564 78.3149 6.63086C80.6533 8.96924 81.9419 12.085 81.9419 15.3916C81.9419 22.2227 76.3789 27.7793 69.5542 27.7793H69.5474C67.4746 27.7793 65.4365 27.2612 63.6299 26.2725L57.0576 27.9976ZM63.9297 24.0366L64.3047 24.2617C65.8862 25.2026 67.6997 25.6934 69.5474 25.7002H69.5542C75.2334 25.7002 79.8486 21.0845 79.8486 15.4058C79.8486 12.6514 78.7783 10.0674 76.8354 8.12451C74.8926 6.18164 72.3086 5.10449 69.5542 5.10449C63.875 5.10449 59.2529 9.72021 59.2529 15.3989C59.2529 17.3418 59.7983 19.2373 60.8276 20.8804L61.0732 21.269L60.0303 25.0664L63.9297 24.0366Z" fill="white" fill-opacity="0.8"/>
<path d="M57.4873 27.5679L59.1851 21.3706C58.1353 19.5571 57.5898 17.498 57.5898 15.3916C57.5898 8.79883 62.9551 3.43359 69.5479 3.43359C72.7451 3.43359 75.752 4.68115 78.0083 6.93799C80.2651 9.20166 81.5127 12.2012 81.5059 15.3984C81.5059 21.9912 76.1406 27.3564 69.5479 27.3564H69.541C67.5366 27.3564 65.5732 26.852 63.8281 25.9043L57.4873 27.5679Z" fill="url(#paint0_linear_2439_144)"/>
<path d="M57.0576 27.9976L58.8164 21.582C57.7324 19.7002 57.1597 17.5732 57.1597 15.3848C57.1597 8.55371 62.7227 2.99707 69.5474 2.99707C72.8608 2.99707 75.9697 4.28564 78.3149 6.63086C80.6533 8.96924 81.9419 12.085 81.9419 15.3916C81.9419 22.2227 76.3789 27.7793 69.5542 27.7793H69.5474C67.4746 27.7793 65.4365 27.2612 63.6299 26.2725L57.0576 27.9976ZM63.9297 24.0366L64.3047 24.2617C65.8862 25.2026 67.6997 25.6934 69.5474 25.7002H69.5542C75.2334 25.7002 79.8486 21.0845 79.8486 15.4058C79.8486 12.6514 78.7783 10.0674 76.8354 8.12451C74.8926 6.18164 72.3086 5.10449 69.5542 5.10449C63.875 5.10449 59.2529 9.72021 59.2529 15.3989C59.2529 17.3418 59.7983 19.2373 60.8276 20.8804L61.0732 21.269L60.0303 25.0664L63.9297 24.0366Z" fill="url(#paint1_linear_2439_144)"/>
<path d="M66.4521 10.2104C66.2202 9.69238 65.9751 9.68555 65.7568 9.67871C65.5796 9.67187 65.3682 9.67188 65.1636 9.67188C64.959 9.67188 64.625 9.74707 64.3389 10.0605C64.0527 10.3672 63.2549 11.1172 63.2549 12.6445C63.2549 14.165 64.3662 15.6372 64.5161 15.8486C64.6729 16.0532 66.6567 19.2778 69.8066 20.5186C72.4248 21.5479 72.9565 21.3433 73.522 21.2959C74.0879 21.2412 75.356 20.5459 75.6147 19.8232C75.874 19.1006 75.874 18.48 75.792 18.3506C75.7168 18.2212 75.5059 18.146 75.1987 17.9893C74.8921 17.8325 73.3647 17.0825 73.0854 16.9805C72.7993 16.8784 72.5947 16.8237 72.3901 17.1372C72.1855 17.4438 71.5923 18.146 71.4082 18.3506C71.231 18.5552 71.0469 18.5825 70.7402 18.4258C70.4336 18.269 69.4312 17.9419 68.252 16.8916C67.3315 16.0737 66.7114 15.0576 66.5273 14.751C66.3501 14.4443 66.5068 14.2739 66.6636 14.1172C66.7998 13.981 66.9702 13.7559 67.127 13.5718C67.2837 13.3877 67.3315 13.2651 67.4336 13.0537C67.5356 12.8491 67.4883 12.665 67.4063 12.5083C67.3315 12.3511 66.7314 10.8242 66.4521 10.2104Z" fill="white" fill-opacity="0.8"/>
</g>
<path d="M101.69 21.1366L98.4401 9.27187H99.9633L102.519 19.444L105.43 9.27187H107.004L109.831 19.444L112.42 9.27187H113.944L110.626 21.1196H109.001L106.175 11.3368L103.281 21.1196L101.69 21.1366ZM115.531 21.1196V8.93336H116.953V14.1633C117.235 13.6443 117.636 13.2437 118.155 12.9616C118.674 12.6682 119.238 12.5215 119.847 12.5215C120.818 12.5215 121.596 12.8262 122.183 13.4355C122.77 14.0335 123.063 14.9588 123.063 16.2113V21.1196H121.658V16.3636C121.658 14.6146 120.953 13.7402 119.543 13.7402C118.809 13.7402 118.194 14.0053 117.698 14.5357C117.201 15.0547 116.953 15.7994 116.953 16.7698V21.1196H115.531ZM128.01 21.3227C127.31 21.3227 126.729 21.2043 126.266 20.9673C125.804 20.7303 125.46 20.4144 125.234 20.0195C125.008 19.6246 124.895 19.1958 124.895 18.7332C124.895 17.8756 125.223 17.2155 125.877 16.7529C126.532 16.2903 127.423 16.0589 128.551 16.0589H130.819V15.9574C130.819 15.224 130.628 14.6711 130.244 14.2987C129.86 13.9151 129.347 13.7232 128.704 13.7232C128.151 13.7232 127.671 13.8643 127.265 14.1464C126.87 14.4172 126.622 14.8177 126.52 15.3481H125.065C125.121 14.7388 125.324 14.2254 125.674 13.8079C126.035 13.3904 126.481 13.0744 127.011 12.86C127.541 12.6344 128.106 12.5215 128.704 12.5215C129.877 12.5215 130.757 12.8375 131.344 13.4694C131.942 14.09 132.241 14.9193 132.241 15.9574V21.1196H130.972L130.887 19.6133C130.65 20.0872 130.3 20.4934 129.838 20.8319C129.386 21.1591 128.777 21.3227 128.01 21.3227ZM128.23 20.121C128.771 20.121 129.234 19.98 129.618 19.6979C130.013 19.4158 130.312 19.0491 130.515 18.5977C130.718 18.1464 130.819 17.6725 130.819 17.176V17.1591H128.67C127.835 17.1591 127.242 17.3058 126.893 17.5992C126.554 17.8812 126.385 18.2367 126.385 18.6654C126.385 19.1055 126.543 19.4609 126.859 19.7317C127.186 19.9913 127.643 20.121 128.23 20.121ZM137.46 21.1196C136.693 21.1196 136.089 20.9334 135.649 20.5611C135.209 20.1887 134.989 19.5174 134.989 18.547V13.9263H133.533V12.7246H134.989L135.175 10.7105H136.411V12.7246H138.882V13.9263H136.411V18.547C136.411 19.0773 136.518 19.4384 136.732 19.6302C136.947 19.8107 137.325 19.901 137.866 19.901H138.746V21.1196H137.46ZM143.904 21.3227C142.899 21.3227 142.065 21.0689 141.399 20.5611C140.733 20.0533 140.344 19.365 140.231 18.4962H141.687C141.777 18.9363 142.008 19.3199 142.38 19.6471C142.764 19.9631 143.277 20.121 143.921 20.121C144.519 20.121 144.959 19.9969 145.241 19.7487C145.523 19.4892 145.664 19.1845 145.664 18.8347C145.664 18.3269 145.478 17.9884 145.105 17.8192C144.744 17.6499 144.231 17.4976 143.565 17.3622C143.114 17.2719 142.663 17.1422 142.211 16.9729C141.76 16.8037 141.382 16.5667 141.077 16.262C140.773 15.9461 140.62 15.5343 140.62 15.0265C140.62 14.2931 140.891 13.695 141.433 13.2324C141.986 12.7585 142.73 12.5215 143.667 12.5215C144.558 12.5215 145.286 12.7472 145.85 13.1986C146.426 13.6386 146.758 14.2705 146.849 15.0942H145.444C145.388 14.6654 145.201 14.3326 144.885 14.0956C144.581 13.8474 144.169 13.7232 143.65 13.7232C143.142 13.7232 142.747 13.8304 142.465 14.0448C142.194 14.2592 142.059 14.5413 142.059 14.8911C142.059 15.2296 142.234 15.4948 142.584 15.6866C142.945 15.8784 143.43 16.042 144.039 16.1774C144.558 16.2903 145.049 16.4313 145.512 16.6006C145.986 16.7585 146.369 17.0011 146.663 17.3283C146.967 17.6443 147.12 18.1069 147.12 18.7162C147.131 19.4722 146.843 20.0985 146.256 20.5949C145.681 21.0801 144.897 21.3227 143.904 21.3227ZM151.943 21.3227C151.244 21.3227 150.663 21.2043 150.2 20.9673C149.737 20.7303 149.393 20.4144 149.168 20.0195C148.942 19.6246 148.829 19.1958 148.829 18.7332C148.829 17.8756 149.156 17.2155 149.811 16.7529C150.465 16.2903 151.357 16.0589 152.485 16.0589H154.753V15.9574C154.753 15.224 154.561 14.6711 154.177 14.2987C153.794 13.9151 153.28 13.7232 152.637 13.7232C152.084 13.7232 151.605 13.8643 151.199 14.1464C150.804 14.4172 150.555 14.8177 150.454 15.3481H148.998C149.055 14.7388 149.258 14.2254 149.608 13.8079C149.969 13.3904 150.414 13.0744 150.945 12.86C151.475 12.6344 152.039 12.5215 152.637 12.5215C153.811 12.5215 154.691 12.8375 155.278 13.4694C155.876 14.09 156.175 14.9193 156.175 15.9574V21.1196H154.905L154.821 19.6133C154.584 20.0872 154.234 20.4934 153.771 20.8319C153.32 21.1591 152.711 21.3227 151.943 21.3227ZM152.163 20.121C152.705 20.121 153.168 19.98 153.551 19.6979C153.946 19.4158 154.245 19.0491 154.448 18.5977C154.651 18.1464 154.753 17.6725 154.753 17.176V17.1591H152.603C151.768 17.1591 151.176 17.3058 150.826 17.5992C150.488 17.8812 150.318 18.2367 150.318 18.6654C150.318 19.1055 150.476 19.4609 150.792 19.7317C151.12 19.9913 151.577 20.121 152.163 20.121ZM158.307 24.8432V12.7246H159.594L159.729 14.1125C160 13.7063 160.384 13.3396 160.88 13.0124C161.388 12.6852 162.031 12.5215 162.81 12.5215C163.645 12.5215 164.372 12.7134 164.993 13.097C165.614 13.4806 166.093 14.0053 166.432 14.6711C166.781 15.3368 166.956 16.0928 166.956 16.9391C166.956 17.7853 166.781 18.5413 166.432 19.2071C166.093 19.8615 165.608 20.3806 164.976 20.7642C164.355 21.1366 163.628 21.3227 162.793 21.3227C162.104 21.3227 161.489 21.1817 160.948 20.8996C160.418 20.6175 160.011 20.2226 159.729 19.7148V24.8432H158.307ZM162.64 20.0872C163.205 20.0872 163.701 19.9574 164.13 19.6979C164.559 19.4271 164.897 19.0547 165.145 18.5808C165.394 18.1069 165.518 17.554 165.518 16.9221C165.518 16.2903 165.394 15.7374 165.145 15.2634C164.897 14.7895 164.559 14.4228 164.13 14.1633C163.701 13.8925 163.205 13.7571 162.64 13.7571C162.076 13.7571 161.58 13.8925 161.151 14.1633C160.722 14.4228 160.384 14.7895 160.135 15.2634C159.887 15.7374 159.763 16.2903 159.763 16.9221C159.763 17.554 159.887 18.1069 160.135 18.5808C160.384 19.0547 160.722 19.4271 161.151 19.6979C161.58 19.9574 162.076 20.0872 162.64 20.0872ZM168.935 24.8432V12.7246H170.222L170.357 14.1125C170.628 13.7063 171.012 13.3396 171.508 13.0124C172.016 12.6852 172.659 12.5215 173.438 12.5215C174.273 12.5215 175 12.7134 175.621 13.097C176.242 13.4806 176.721 14.0053 177.06 14.6711C177.409 15.3368 177.584 16.0928 177.584 16.9391C177.584 17.7853 177.409 18.5413 177.06 19.2071C176.721 19.8615 176.236 20.3806 175.604 20.7642C174.983 21.1366 174.256 21.3227 173.421 21.3227C172.732 21.3227 172.117 21.1817 171.576 20.8996C171.045 20.6175 170.639 20.2226 170.357 19.7148V24.8432H168.935ZM173.268 20.0872C173.833 20.0872 174.329 19.9574 174.758 19.6979C175.187 19.4271 175.525 19.0547 175.773 18.5808C176.022 18.1069 176.146 17.554 176.146 16.9221C176.146 16.2903 176.022 15.7374 175.773 15.2634C175.525 14.7895 175.187 14.4228 174.758 14.1633C174.329 13.8925 173.833 13.7571 173.268 13.7571C172.704 13.7571 172.208 13.8925 171.779 14.1633C171.35 14.4228 171.012 14.7895 170.763 15.2634C170.515 15.7374 170.391 16.2903 170.391 16.9221C170.391 17.554 170.515 18.1069 170.763 18.5808C171.012 19.0547 171.35 19.4271 171.779 19.6979C172.208 19.9574 172.704 20.0872 173.268 20.0872Z" fill="white"/>
<path d="M99.2525 101V89.1522H100.674V101H99.2525ZM103.102 101V92.605H104.388L104.473 94.1114C104.743 93.581 105.133 93.1636 105.64 92.8589C106.148 92.5542 106.724 92.4019 107.367 92.4019C108.36 92.4019 109.15 92.7066 109.736 93.3159C110.334 93.9139 110.633 94.8392 110.633 96.0916V101H109.212V96.244C109.212 94.495 108.49 93.6205 107.045 93.6205C106.323 93.6205 105.719 93.8857 105.234 94.416C104.76 94.9351 104.523 95.6798 104.523 96.6502V101H103.102ZM116.003 101.203C114.999 101.203 114.164 100.949 113.498 100.441C112.833 99.9337 112.443 99.2454 112.331 98.3766H113.786C113.876 98.8166 114.108 99.2003 114.48 99.5275C114.864 99.8434 115.377 100.001 116.02 100.001C116.618 100.001 117.058 99.8773 117.34 99.629C117.623 99.3695 117.764 99.0649 117.764 98.7151C117.764 98.2073 117.577 97.8688 117.205 97.6996C116.844 97.5303 116.331 97.378 115.665 97.2426C115.213 97.1523 114.762 97.0225 114.311 96.8533C113.859 96.684 113.481 96.4471 113.177 96.1424C112.872 95.8265 112.72 95.4146 112.72 94.9069C112.72 94.1734 112.991 93.5754 113.532 93.1128C114.085 92.6389 114.83 92.4019 115.766 92.4019C116.658 92.4019 117.386 92.6276 117.95 93.0789C118.525 93.519 118.858 94.1509 118.948 94.9746H117.544C117.487 94.5458 117.301 94.2129 116.985 93.976C116.68 93.7277 116.268 93.6036 115.749 93.6036C115.242 93.6036 114.847 93.7108 114.565 93.9252C114.294 94.1396 114.158 94.4217 114.158 94.7715C114.158 95.11 114.333 95.3751 114.683 95.567C115.044 95.7588 115.529 95.9224 116.139 96.0578C116.658 96.1706 117.149 96.3117 117.611 96.4809C118.085 96.6389 118.469 96.8815 118.762 97.2087C119.067 97.5247 119.219 97.9873 119.219 98.5966C119.23 99.3526 118.943 99.9788 118.356 100.475C117.78 100.961 116.996 101.203 116.003 101.203ZM124.187 101C123.42 101 122.816 100.814 122.376 100.441C121.936 100.069 121.716 99.3977 121.716 98.4273V93.8067H120.261V92.605H121.716L121.902 90.5909H123.138V92.605H125.609V93.8067H123.138V98.4273C123.138 98.9577 123.245 99.3187 123.46 99.5106C123.674 99.6911 124.052 99.7814 124.594 99.7814H125.474V101H124.187ZM130.208 101.203C129.508 101.203 128.927 101.085 128.465 100.848C128.002 100.611 127.658 100.295 127.432 99.8999C127.207 99.5049 127.094 99.0761 127.094 98.6135C127.094 97.756 127.421 97.0959 128.075 96.6333C128.73 96.1706 129.621 95.9393 130.75 95.9393H133.018V95.8378C133.018 95.1043 132.826 94.5514 132.442 94.1791C132.059 93.7954 131.545 93.6036 130.902 93.6036C130.349 93.6036 129.87 93.7447 129.463 94.0267C129.068 94.2976 128.82 94.6981 128.719 95.2284H127.263C127.319 94.6191 127.523 94.1057 127.872 93.6882C128.233 93.2707 128.679 92.9548 129.209 92.7404C129.74 92.5147 130.304 92.4019 130.902 92.4019C132.075 92.4019 132.956 92.7179 133.542 93.3497C134.14 93.9703 134.439 94.7997 134.439 95.8378V101H133.17L133.085 99.4936C132.848 99.9676 132.499 100.374 132.036 100.712C131.585 101.039 130.975 101.203 130.208 101.203ZM130.428 100.001C130.97 100.001 131.432 99.8604 131.816 99.5783C132.211 99.2962 132.51 98.9295 132.713 98.4781C132.916 98.0268 133.018 97.5529 133.018 97.0564V97.0395H130.868C130.033 97.0395 129.441 97.1861 129.091 97.4795C128.752 97.7616 128.583 98.117 128.583 98.5458C128.583 98.9859 128.741 99.3413 129.057 99.6121C129.384 99.8716 129.841 100.001 130.428 100.001ZM139.89 98.3596C139.416 98.3596 138.981 98.2976 138.586 98.1735L137.74 98.969C137.864 99.0592 138.017 99.1382 138.197 99.2059C138.389 99.2623 138.66 99.3187 139.01 99.3752C139.359 99.4203 139.85 99.4711 140.482 99.5275C141.61 99.6065 142.417 99.866 142.902 100.306C143.388 100.746 143.63 101.322 143.63 102.032C143.63 102.518 143.495 102.98 143.224 103.42C142.964 103.86 142.558 104.221 142.005 104.504C141.464 104.786 140.764 104.927 139.907 104.927C139.151 104.927 138.479 104.825 137.892 104.622C137.306 104.43 136.849 104.131 136.521 103.725C136.194 103.33 136.031 102.828 136.031 102.219C136.031 101.903 136.115 101.559 136.285 101.186C136.454 100.825 136.77 100.481 137.232 100.154C136.984 100.052 136.77 99.945 136.589 99.8321C136.42 99.708 136.262 99.5726 136.115 99.4259V99.0367L137.554 97.6149C136.888 97.0507 136.555 96.306 136.555 95.3808C136.555 94.8279 136.685 94.3258 136.945 93.8744C137.204 93.4231 137.582 93.0676 138.079 92.8081C138.575 92.5373 139.179 92.4019 139.89 92.4019C140.375 92.4019 140.815 92.4696 141.21 92.605H144.307V93.6713L142.733 93.739C143.06 94.2129 143.224 94.7602 143.224 95.3808C143.224 95.9337 143.089 96.4358 142.818 96.8871C142.558 97.3385 142.18 97.6996 141.684 97.9704C141.199 98.2299 140.601 98.3596 139.89 98.3596ZM139.89 97.1918C140.488 97.1918 140.962 97.0395 141.311 96.7348C141.672 96.4189 141.853 95.9675 141.853 95.3808C141.853 94.8053 141.672 94.3653 141.311 94.0606C140.962 93.7447 140.488 93.5867 139.89 93.5867C139.28 93.5867 138.795 93.7447 138.434 94.0606C138.084 94.3653 137.909 94.8053 137.909 95.3808C137.909 95.9675 138.084 96.4189 138.434 96.7348C138.795 97.0395 139.28 97.1918 139.89 97.1918ZM137.419 102.083C137.419 102.647 137.655 103.065 138.129 103.336C138.603 103.618 139.196 103.759 139.907 103.759C140.606 103.759 141.165 103.607 141.582 103.302C142.011 102.997 142.225 102.591 142.225 102.083C142.225 101.722 142.079 101.406 141.785 101.135C141.492 100.876 140.95 100.724 140.16 100.678C139.54 100.633 139.004 100.577 138.553 100.509C138.09 100.757 137.785 101.023 137.639 101.305C137.492 101.598 137.419 101.858 137.419 102.083ZM145.911 101V92.605H147.197L147.316 94.2129C147.575 93.66 147.97 93.22 148.501 92.8927C149.031 92.5655 149.685 92.4019 150.464 92.4019V93.8913H150.075C149.578 93.8913 149.121 93.9816 148.704 94.1621C148.286 94.3314 147.953 94.6248 147.705 95.0423C147.457 95.4598 147.333 96.0352 147.333 96.7687V101H145.911ZM154.852 101.203C154.153 101.203 153.572 101.085 153.109 100.848C152.646 100.611 152.302 100.295 152.077 99.8999C151.851 99.5049 151.738 99.0761 151.738 98.6135C151.738 97.756 152.065 97.0959 152.72 96.6333C153.374 96.1706 154.266 95.9393 155.394 95.9393H157.662V95.8378C157.662 95.1043 157.47 94.5514 157.086 94.1791C156.703 93.7954 156.189 93.6036 155.546 93.6036C154.993 93.6036 154.514 93.7447 154.108 94.0267C153.713 94.2976 153.464 94.6981 153.363 95.2284H151.907C151.964 94.6191 152.167 94.1057 152.517 93.6882C152.878 93.2707 153.323 92.9548 153.854 92.7404C154.384 92.5147 154.948 92.4019 155.546 92.4019C156.72 92.4019 157.6 92.7179 158.187 93.3497C158.785 93.9703 159.084 94.7997 159.084 95.8378V101H157.814L157.73 99.4936C157.493 99.9676 157.143 100.374 156.68 100.712C156.229 101.039 155.62 101.203 154.852 101.203ZM155.072 100.001C155.614 100.001 156.077 99.8604 156.46 99.5783C156.855 99.2962 157.154 98.9295 157.357 98.4781C157.56 98.0268 157.662 97.5529 157.662 97.0564V97.0395H155.512C154.677 97.0395 154.085 97.1861 153.735 97.4795C153.397 97.7616 153.227 98.117 153.227 98.5458C153.227 98.9859 153.385 99.3413 153.701 99.6121C154.029 99.8716 154.486 100.001 155.072 100.001ZM161.217 101V92.605H162.503L162.604 93.8236C162.875 93.3723 163.236 93.0225 163.688 92.7743C164.139 92.526 164.647 92.4019 165.211 92.4019C165.877 92.4019 166.446 92.5373 166.92 92.8081C167.406 93.0789 167.778 93.4908 168.037 94.0437C168.331 93.5359 168.731 93.1353 169.239 92.842C169.758 92.5486 170.317 92.4019 170.915 92.4019C171.919 92.4019 172.72 92.7066 173.318 93.3159C173.916 93.9139 174.215 94.8392 174.215 96.0916V101H172.81V96.244C172.81 95.3751 172.636 94.7207 172.286 94.2806C171.936 93.8406 171.434 93.6205 170.779 93.6205C170.102 93.6205 169.538 93.8857 169.087 94.416C168.647 94.9351 168.427 95.6798 168.427 96.6502V101H167.005V96.244C167.005 95.3751 166.83 94.7207 166.48 94.2806C166.131 93.8406 165.628 93.6205 164.974 93.6205C164.308 93.6205 163.75 93.8857 163.298 94.416C162.858 94.9351 162.638 95.6798 162.638 96.6502V101H161.217Z" fill="white"/>
<path d="M99.2525 177V165.152H106.463V166.32H100.674V170.484H105.599V171.635H100.674V177H99.2525ZM110.423 177.203C109.724 177.203 109.143 177.085 108.68 176.848C108.217 176.611 107.873 176.295 107.647 175.9C107.422 175.505 107.309 175.076 107.309 174.614C107.309 173.756 107.636 173.096 108.291 172.633C108.945 172.171 109.836 171.939 110.965 171.939H113.233V171.838C113.233 171.104 113.041 170.551 112.657 170.179C112.274 169.795 111.76 169.604 111.117 169.604C110.564 169.604 110.085 169.745 109.679 170.027C109.284 170.298 109.035 170.698 108.934 171.228H107.478C107.535 170.619 107.738 170.106 108.088 169.688C108.449 169.271 108.894 168.955 109.425 168.74C109.955 168.515 110.519 168.402 111.117 168.402C112.291 168.402 113.171 168.718 113.758 169.35C114.356 169.97 114.655 170.8 114.655 171.838V177H113.385L113.301 175.494C113.064 175.968 112.714 176.374 112.251 176.712C111.8 177.039 111.191 177.203 110.423 177.203ZM110.643 176.001C111.185 176.001 111.647 175.86 112.031 175.578C112.426 175.296 112.725 174.929 112.928 174.478C113.131 174.027 113.233 173.553 113.233 173.056V173.039H111.083C110.248 173.039 109.656 173.186 109.306 173.48C108.968 173.762 108.798 174.117 108.798 174.546C108.798 174.986 108.956 175.341 109.272 175.612C109.6 175.872 110.057 176.001 110.643 176.001ZM120.646 177.203C119.845 177.203 119.123 177.023 118.48 176.661C117.848 176.289 117.346 175.776 116.974 175.121C116.613 174.456 116.432 173.683 116.432 172.803C116.432 171.922 116.613 171.155 116.974 170.501C117.346 169.835 117.848 169.322 118.48 168.96C119.123 168.588 119.845 168.402 120.646 168.402C121.639 168.402 122.474 168.661 123.151 169.18C123.84 169.7 124.274 170.393 124.455 171.262H122.999C122.886 170.743 122.61 170.343 122.17 170.061C121.73 169.767 121.216 169.621 120.629 169.621C120.156 169.621 119.71 169.739 119.292 169.976C118.875 170.213 118.536 170.568 118.277 171.042C118.017 171.516 117.888 172.103 117.888 172.803C117.888 173.502 118.017 174.089 118.277 174.563C118.536 175.037 118.875 175.398 119.292 175.646C119.71 175.883 120.156 176.001 120.629 176.001C121.216 176.001 121.73 175.86 122.17 175.578C122.61 175.285 122.886 174.873 122.999 174.343H124.455C124.285 175.189 123.857 175.877 123.168 176.408C122.48 176.938 121.639 177.203 120.646 177.203ZM130.215 177.203C129.413 177.203 128.703 177.023 128.082 176.661C127.461 176.289 126.971 175.776 126.609 175.121C126.26 174.467 126.085 173.694 126.085 172.803C126.085 171.922 126.26 171.155 126.609 170.501C126.959 169.835 127.444 169.322 128.065 168.96C128.697 168.588 129.425 168.402 130.248 168.402C131.061 168.402 131.76 168.588 132.347 168.96C132.945 169.322 133.402 169.801 133.718 170.399C134.034 170.997 134.192 171.64 134.192 172.329C134.192 172.453 134.186 172.577 134.175 172.701C134.175 172.825 134.175 172.966 134.175 173.124H127.49C127.523 173.767 127.67 174.303 127.93 174.732C128.2 175.149 128.533 175.465 128.928 175.68C129.334 175.894 129.763 176.001 130.215 176.001C130.801 176.001 131.292 175.866 131.687 175.595C132.082 175.324 132.37 174.958 132.55 174.495H133.955C133.729 175.274 133.295 175.922 132.652 176.441C132.02 176.949 131.207 177.203 130.215 177.203ZM130.215 169.604C129.538 169.604 128.934 169.812 128.404 170.23C127.884 170.636 127.585 171.234 127.506 172.024H132.787C132.753 171.268 132.494 170.676 132.009 170.247C131.523 169.818 130.925 169.604 130.215 169.604ZM140.562 177.203C139.873 177.203 139.258 177.062 138.717 176.78C138.186 176.498 137.78 176.103 137.498 175.595L137.363 177H136.076V164.814H137.498V169.993C137.769 169.587 138.153 169.22 138.649 168.893C139.157 168.566 139.8 168.402 140.579 168.402C141.414 168.402 142.141 168.594 142.762 168.977C143.383 169.361 143.862 169.886 144.201 170.551C144.55 171.217 144.725 171.973 144.725 172.819C144.725 173.666 144.55 174.422 144.201 175.087C143.862 175.742 143.377 176.261 142.745 176.645C142.124 177.017 141.397 177.203 140.562 177.203ZM140.409 175.968C140.973 175.968 141.47 175.838 141.899 175.578C142.328 175.307 142.666 174.935 142.914 174.461C143.162 173.987 143.287 173.434 143.287 172.803C143.287 172.171 143.162 171.618 142.914 171.144C142.666 170.67 142.328 170.303 141.899 170.044C141.47 169.773 140.973 169.637 140.409 169.637C139.845 169.637 139.349 169.773 138.92 170.044C138.491 170.303 138.153 170.67 137.904 171.144C137.656 171.618 137.532 172.171 137.532 172.803C137.532 173.434 137.656 173.987 137.904 174.461C138.153 174.935 138.491 175.307 138.92 175.578C139.349 175.838 139.845 175.968 140.409 175.968ZM150.529 177.203C149.74 177.203 149.029 177.023 148.397 176.661C147.765 176.3 147.263 175.793 146.891 175.138C146.529 174.472 146.349 173.694 146.349 172.803C146.349 171.911 146.535 171.138 146.907 170.484C147.28 169.818 147.782 169.305 148.414 168.944C149.057 168.582 149.773 168.402 150.563 168.402C151.353 168.402 152.064 168.582 152.696 168.944C153.328 169.305 153.824 169.818 154.185 170.484C154.558 171.138 154.744 171.911 154.744 172.803C154.744 173.694 154.558 174.472 154.185 175.138C153.813 175.793 153.305 176.3 152.662 176.661C152.03 177.023 151.319 177.203 150.529 177.203ZM150.529 175.984C151.015 175.984 151.466 175.866 151.884 175.629C152.301 175.392 152.64 175.037 152.899 174.563C153.159 174.089 153.288 173.502 153.288 172.803C153.288 172.103 153.159 171.516 152.899 171.042C152.651 170.568 152.318 170.213 151.9 169.976C151.483 169.739 151.037 169.621 150.563 169.621C150.078 169.621 149.627 169.739 149.209 169.976C148.792 170.213 148.453 170.568 148.194 171.042C147.934 171.516 147.804 172.103 147.804 172.803C147.804 173.502 147.934 174.089 148.194 174.563C148.453 175.037 148.786 175.392 149.192 175.629C149.61 175.866 150.056 175.984 150.529 175.984ZM160.546 177.203C159.756 177.203 159.045 177.023 158.413 176.661C157.781 176.3 157.279 175.793 156.907 175.138C156.546 174.472 156.365 173.694 156.365 172.803C156.365 171.911 156.551 171.138 156.924 170.484C157.296 169.818 157.798 169.305 158.43 168.944C159.073 168.582 159.79 168.402 160.58 168.402C161.37 168.402 162.08 168.582 162.712 168.944C163.344 169.305 163.841 169.818 164.202 170.484C164.574 171.138 164.76 171.911 164.76 172.803C164.76 173.694 164.574 174.472 164.202 175.138C163.829 175.793 163.322 176.3 162.678 176.661C162.047 177.023 161.336 177.203 160.546 177.203ZM160.546 175.984C161.031 175.984 161.482 175.866 161.9 175.629C162.317 175.392 162.656 175.037 162.915 174.563C163.175 174.089 163.305 173.502 163.305 172.803C163.305 172.103 163.175 171.516 162.915 171.042C162.667 170.568 162.334 170.213 161.917 169.976C161.499 169.739 161.054 169.621 160.58 169.621C160.095 169.621 159.643 169.739 159.226 169.976C158.808 170.213 158.47 170.568 158.21 171.042C157.951 171.516 157.821 172.103 157.821 172.803C157.821 173.502 157.951 174.089 158.21 174.563C158.47 175.037 158.803 175.392 159.209 175.629C159.626 175.866 160.072 175.984 160.546 175.984ZM166.737 177V164.814H168.159V172.142L171.595 168.605H173.338L169.614 172.396L173.812 177H172.001L168.159 172.65V177H166.737Z" fill="white"/>
<path d="M103.027 255.203C102.158 255.203 101.402 255.045 100.759 254.729C100.116 254.413 99.6192 253.973 99.2694 253.409C98.9196 252.845 98.7447 252.19 98.7447 251.446H100.234C100.234 251.908 100.341 252.337 100.556 252.732C100.77 253.116 101.08 253.426 101.487 253.663C101.904 253.889 102.418 254.001 103.027 254.001C103.828 254.001 104.449 253.81 104.889 253.426C105.329 253.042 105.549 252.563 105.549 251.987C105.549 251.513 105.447 251.135 105.244 250.853C105.041 250.56 104.765 250.323 104.415 250.142C104.076 249.962 103.681 249.804 103.23 249.669C102.79 249.533 102.327 249.381 101.842 249.212C100.928 248.896 100.251 248.506 99.811 248.044C99.371 247.57 99.1509 246.955 99.1509 246.199C99.1396 245.567 99.2863 245.008 99.591 244.523C99.8956 244.027 100.324 243.643 100.877 243.372C101.441 243.09 102.107 242.949 102.875 242.949C103.631 242.949 104.285 243.09 104.838 243.372C105.402 243.654 105.836 244.044 106.141 244.54C106.457 245.037 106.621 245.601 106.632 246.233H105.143C105.143 245.905 105.058 245.584 104.889 245.268C104.719 244.941 104.46 244.676 104.11 244.472C103.772 244.269 103.343 244.168 102.824 244.168C102.181 244.156 101.65 244.32 101.233 244.659C100.827 244.997 100.623 245.465 100.623 246.063C100.623 246.571 100.764 246.96 101.047 247.231C101.34 247.502 101.746 247.728 102.265 247.908C102.784 248.078 103.382 248.275 104.059 248.501C104.623 248.704 105.131 248.941 105.583 249.212C106.034 249.482 106.384 249.832 106.632 250.261C106.891 250.69 107.021 251.237 107.021 251.903C107.021 252.467 106.875 253.003 106.581 253.511C106.288 254.007 105.842 254.413 105.244 254.729C104.657 255.045 103.918 255.203 103.027 255.203ZM109.037 255V243.152H110.696L114.961 251.412L119.193 243.152H120.868V255H119.447V245.691L115.486 253.307H114.42L110.459 245.708V255H109.037ZM127.142 255.203C126.273 255.203 125.517 255.045 124.874 254.729C124.231 254.413 123.735 253.973 123.385 253.409C123.035 252.845 122.86 252.19 122.86 251.446H124.35C124.35 251.908 124.457 252.337 124.671 252.732C124.885 253.116 125.196 253.426 125.602 253.663C126.019 253.889 126.533 254.001 127.142 254.001C127.943 254.001 128.564 253.81 129.004 253.426C129.444 253.042 129.664 252.563 129.664 251.987C129.664 251.513 129.563 251.135 129.359 250.853C129.156 250.56 128.88 250.323 128.53 250.142C128.192 249.962 127.797 249.804 127.345 249.669C126.905 249.533 126.443 249.381 125.957 249.212C125.043 248.896 124.366 248.506 123.926 248.044C123.486 247.57 123.266 246.955 123.266 246.199C123.255 245.567 123.402 245.008 123.706 244.523C124.011 244.027 124.44 243.643 124.993 243.372C125.557 243.09 126.223 242.949 126.99 242.949C127.746 242.949 128.4 243.09 128.953 243.372C129.517 243.654 129.952 244.044 130.256 244.54C130.572 245.037 130.736 245.601 130.747 246.233H129.258C129.258 245.905 129.173 245.584 129.004 245.268C128.835 244.941 128.575 244.676 128.225 244.472C127.887 244.269 127.458 244.168 126.939 244.168C126.296 244.156 125.766 244.32 125.348 244.659C124.942 244.997 124.739 245.465 124.739 246.063C124.739 246.571 124.88 246.96 125.162 247.231C125.455 247.502 125.862 247.728 126.381 247.908C126.9 248.078 127.498 248.275 128.175 248.501C128.739 248.704 129.247 248.941 129.698 249.212C130.149 249.482 130.499 249.832 130.747 250.261C131.007 250.69 131.137 251.237 131.137 251.903C131.137 252.467 130.99 253.003 130.697 253.511C130.403 254.007 129.957 254.413 129.359 254.729C128.773 255.045 128.034 255.203 127.142 255.203ZM140.408 255V244.32H136.87V243.152H145.367V244.32H141.83V255H140.408ZM149.272 255.203C148.471 255.203 147.76 255.023 147.14 254.661C146.519 254.289 146.028 253.776 145.667 253.121C145.317 252.467 145.142 251.694 145.142 250.803C145.142 249.922 145.317 249.155 145.667 248.501C146.017 247.835 146.502 247.322 147.123 246.96C147.754 246.588 148.482 246.402 149.306 246.402C150.118 246.402 150.818 246.588 151.405 246.96C152.003 247.322 152.46 247.801 152.776 248.399C153.092 248.997 153.25 249.64 153.25 250.329C153.25 250.453 153.244 250.577 153.233 250.701C153.233 250.825 153.233 250.966 153.233 251.124H146.547C146.581 251.767 146.728 252.303 146.987 252.732C147.258 253.149 147.591 253.465 147.986 253.68C148.392 253.894 148.821 254.001 149.272 254.001C149.859 254.001 150.35 253.866 150.745 253.595C151.14 253.324 151.427 252.958 151.608 252.495H153.013C152.787 253.274 152.353 253.922 151.709 254.441C151.077 254.949 150.265 255.203 149.272 255.203ZM149.272 247.604C148.595 247.604 147.991 247.812 147.461 248.23C146.942 248.636 146.643 249.234 146.564 250.024H151.845C151.811 249.268 151.551 248.676 151.066 248.247C150.581 247.818 149.983 247.604 149.272 247.604ZM153.891 255L156.802 250.803L153.891 246.605H155.431L157.784 250.075L160.153 246.605H161.677L158.766 250.803L161.677 255H160.153L157.784 251.53L155.431 255H153.891ZM166.484 255C165.717 255 165.113 254.814 164.673 254.441C164.233 254.069 164.013 253.398 164.013 252.427V247.807H162.558V246.605H164.013L164.199 244.591H165.435V246.605H167.906V247.807H165.435V252.427C165.435 252.958 165.542 253.319 165.757 253.511C165.971 253.691 166.349 253.781 166.891 253.781H167.771V255H166.484Z" fill="white"/>
<rect x="259.5" y="0.5" width="108" height="33" rx="3.5" stroke="#5D90DE"/>
<rect x="273" y="78" width="95" height="34" rx="4" fill="#096FAF"/>
<rect x="273" y="155" width="95" height="34" rx="4" fill="#096FAF"/>
<rect x="273" y="233" width="95" height="34" rx="4" fill="#096FAF"/>
<path d="M276.16 22.192C275.029 22.192 274.059 21.952 273.248 21.472C272.437 20.9813 271.813 20.304 271.376 19.44C270.939 18.5653 270.72 17.5573 270.72 16.416C270.72 15.2747 270.939 14.2667 271.376 13.392C271.813 12.5173 272.437 11.8347 273.248 11.344C274.059 10.8533 275.029 10.608 276.16 10.608C277.504 10.608 278.603 10.944 279.456 11.616C280.32 12.2773 280.859 13.2107 281.072 14.416H278.816C278.677 13.808 278.379 13.3333 277.92 12.992C277.472 12.64 276.875 12.464 276.128 12.464C275.093 12.464 274.283 12.816 273.696 13.52C273.109 14.224 272.816 15.1893 272.816 16.416C272.816 17.6427 273.109 18.608 273.696 19.312C274.283 20.0053 275.093 20.352 276.128 20.352C276.875 20.352 277.472 20.192 277.92 19.872C278.379 19.5413 278.677 19.088 278.816 18.512H281.072C280.859 19.664 280.32 20.5653 279.456 21.216C278.603 21.8667 277.504 22.192 276.16 22.192ZM286.645 22.192C285.877 22.192 285.184 22.016 284.565 21.664C283.957 21.312 283.472 20.8267 283.109 20.208C282.757 19.5787 282.581 18.8533 282.581 18.032C282.581 17.2107 282.762 16.4907 283.125 15.872C283.488 15.2427 283.973 14.752 284.581 14.4C285.2 14.048 285.893 13.872 286.661 13.872C287.418 13.872 288.101 14.048 288.709 14.4C289.328 14.752 289.813 15.2427 290.165 15.872C290.528 16.4907 290.709 17.2107 290.709 18.032C290.709 18.8533 290.528 19.5787 290.165 20.208C289.813 20.8267 289.328 21.312 288.709 21.664C288.09 22.016 287.402 22.192 286.645 22.192ZM286.645 20.416C287.178 20.416 287.642 20.2187 288.037 19.824C288.432 19.4187 288.629 18.8213 288.629 18.032C288.629 17.2427 288.432 16.6507 288.037 16.256C287.642 15.8507 287.184 15.648 286.661 15.648C286.117 15.648 285.648 15.8507 285.253 16.256C284.869 16.6507 284.677 17.2427 284.677 18.032C284.677 18.8213 284.869 19.4187 285.253 19.824C285.648 20.2187 286.112 20.416 286.645 20.416ZM292.54 22V14.064H294.348L294.508 15.408C294.753 14.9387 295.105 14.5653 295.564 14.288C296.033 14.0107 296.583 13.872 297.212 13.872C298.193 13.872 298.956 14.1813 299.5 14.8C300.044 15.4187 300.316 16.3253 300.316 17.52V22H298.268V17.712C298.268 17.0293 298.129 16.5067 297.852 16.144C297.575 15.7813 297.143 15.6 296.556 15.6C295.98 15.6 295.505 15.8027 295.132 16.208C294.769 16.6133 294.588 17.1787 294.588 17.904V22H292.54ZM302.274 22V14.064H304.082L304.242 15.408C304.488 14.9387 304.84 14.5653 305.298 14.288C305.768 14.0107 306.317 13.872 306.946 13.872C307.928 13.872 308.69 14.1813 309.234 14.8C309.778 15.4187 310.05 16.3253 310.05 17.52V22H308.002V17.712C308.002 17.0293 307.864 16.5067 307.586 16.144C307.309 15.7813 306.877 15.6 306.29 15.6C305.714 15.6 305.24 15.8027 304.866 16.208C304.504 16.6133 304.322 17.1787 304.322 17.904V22H302.274ZM315.865 22.192C315.065 22.192 314.355 22.0213 313.737 21.68C313.118 21.3387 312.633 20.8587 312.281 20.24C311.929 19.6213 311.753 18.9067 311.753 18.096C311.753 17.2747 311.923 16.544 312.265 15.904C312.617 15.264 313.097 14.768 313.705 14.416C314.323 14.0533 315.049 13.872 315.881 13.872C316.659 13.872 317.347 14.0427 317.945 14.384C318.542 14.7253 319.006 15.1947 319.337 15.792C319.678 16.3787 319.849 17.0347 319.849 17.76C319.849 17.8773 319.843 18 319.833 18.128C319.833 18.256 319.827 18.3893 319.817 18.528H313.785C313.827 19.1467 314.041 19.632 314.425 19.984C314.819 20.336 315.294 20.512 315.849 20.512C316.265 20.512 316.611 20.4213 316.889 20.24C317.177 20.048 317.39 19.8027 317.529 19.504H319.609C319.459 20.0053 319.209 20.464 318.857 20.88C318.515 21.2853 318.089 21.6053 317.577 21.84C317.075 22.0747 316.505 22.192 315.865 22.192ZM315.881 15.536C315.379 15.536 314.937 15.68 314.553 15.968C314.169 16.2453 313.923 16.672 313.817 17.248H317.769C317.737 16.7253 317.545 16.3093 317.193 16C316.841 15.6907 316.403 15.536 315.881 15.536ZM325.459 22.192C324.649 22.192 323.934 22.016 323.315 21.664C322.697 21.312 322.206 20.8213 321.843 20.192C321.491 19.5627 321.315 18.8427 321.315 18.032C321.315 17.2213 321.491 16.5013 321.843 15.872C322.206 15.2427 322.697 14.752 323.315 14.4C323.934 14.048 324.649 13.872 325.459 13.872C326.473 13.872 327.326 14.1387 328.019 14.672C328.713 15.1947 329.155 15.92 329.347 16.848H327.187C327.081 16.464 326.867 16.1653 326.547 15.952C326.238 15.728 325.87 15.616 325.443 15.616C324.878 15.616 324.398 15.8293 324.003 16.256C323.609 16.6827 323.411 17.2747 323.411 18.032C323.411 18.7893 323.609 19.3813 324.003 19.808C324.398 20.2347 324.878 20.448 325.443 20.448C325.87 20.448 326.238 20.3413 326.547 20.128C326.867 19.9147 327.081 19.6107 327.187 19.216H329.347C329.155 20.112 328.713 20.832 328.019 21.376C327.326 21.92 326.473 22.192 325.459 22.192ZM334.592 22C333.76 22 333.093 21.7973 332.592 21.392C332.09 20.9867 331.84 20.2667 331.84 19.232V15.776H330.48V14.064H331.84L332.08 11.936H333.888V14.064H336.032V15.776H333.888V19.248C333.888 19.632 333.968 19.8987 334.128 20.048C334.298 20.1867 334.586 20.256 334.992 20.256H335.984V22H334.592ZM341.443 22.192C340.643 22.192 339.934 22.0213 339.315 21.68C338.696 21.3387 338.211 20.8587 337.859 20.24C337.507 19.6213 337.331 18.9067 337.331 18.096C337.331 17.2747 337.502 16.544 337.843 15.904C338.195 15.264 338.675 14.768 339.283 14.416C339.902 14.0533 340.627 13.872 341.459 13.872C342.238 13.872 342.926 14.0427 343.523 14.384C344.12 14.7253 344.584 15.1947 344.915 15.792C345.256 16.3787 345.427 17.0347 345.427 17.76C345.427 17.8773 345.422 18 345.411 18.128C345.411 18.256 345.406 18.3893 345.395 18.528H339.363C339.406 19.1467 339.619 19.632 340.003 19.984C340.398 20.336 340.872 20.512 341.427 20.512C341.843 20.512 342.19 20.4213 342.467 20.24C342.755 20.048 342.968 19.8027 343.107 19.504H345.187C345.038 20.0053 344.787 20.464 344.435 20.88C344.094 21.2853 343.667 21.6053 343.155 21.84C342.654 22.0747 342.083 22.192 341.443 22.192ZM341.459 15.536C340.958 15.536 340.515 15.68 340.131 15.968C339.747 16.2453 339.502 16.672 339.395 17.248H343.347C343.315 16.7253 343.123 16.3093 342.771 16C342.419 15.6907 341.982 15.536 341.459 15.536ZM350.797 22.192C350.051 22.192 349.384 22.0107 348.797 21.648C348.211 21.2853 347.747 20.7893 347.405 20.16C347.064 19.5307 346.893 18.816 346.893 18.016C346.893 17.216 347.064 16.5067 347.405 15.888C347.747 15.2587 348.211 14.768 348.797 14.416C349.384 14.0533 350.051 13.872 350.797 13.872C351.395 13.872 351.917 13.984 352.365 14.208C352.813 14.432 353.176 14.7467 353.453 15.152V10.48H355.501V22H353.677L353.453 20.864C353.197 21.216 352.856 21.5253 352.429 21.792C352.013 22.0587 351.469 22.192 350.797 22.192ZM351.229 20.4C351.891 20.4 352.429 20.1813 352.845 19.744C353.272 19.296 353.485 18.7253 353.485 18.032C353.485 17.3387 353.272 16.7733 352.845 16.336C352.429 15.888 351.891 15.664 351.229 15.664C350.579 15.664 350.04 15.8827 349.613 16.32C349.187 16.7573 348.973 17.3227 348.973 18.016C348.973 18.7093 349.187 19.28 349.613 19.728C350.04 20.176 350.579 20.4 351.229 20.4Z" fill="#096FAF"/>
<path d="M291.16 177.192C290.029 177.192 289.059 176.952 288.248 176.472C287.437 175.981 286.813 175.304 286.376 174.44C285.939 173.565 285.72 172.557 285.72 171.416C285.72 170.275 285.939 169.267 286.376 168.392C286.813 167.517 287.437 166.835 288.248 166.344C289.059 165.853 290.029 165.608 291.16 165.608C292.504 165.608 293.603 165.944 294.456 166.616C295.32 167.277 295.859 168.211 296.072 169.416H293.816C293.677 168.808 293.379 168.333 292.92 167.992C292.472 167.64 291.875 167.464 291.128 167.464C290.093 167.464 289.283 167.816 288.696 168.52C288.109 169.224 287.816 170.189 287.816 171.416C287.816 172.643 288.109 173.608 288.696 174.312C289.283 175.005 290.093 175.352 291.128 175.352C291.875 175.352 292.472 175.192 292.92 174.872C293.379 174.541 293.677 174.088 293.816 173.512H296.072C295.859 174.664 295.32 175.565 294.456 176.216C293.603 176.867 292.504 177.192 291.16 177.192ZM301.645 177.192C300.877 177.192 300.184 177.016 299.565 176.664C298.957 176.312 298.472 175.827 298.109 175.208C297.757 174.579 297.581 173.853 297.581 173.032C297.581 172.211 297.762 171.491 298.125 170.872C298.488 170.243 298.973 169.752 299.581 169.4C300.2 169.048 300.893 168.872 301.661 168.872C302.418 168.872 303.101 169.048 303.709 169.4C304.328 169.752 304.813 170.243 305.165 170.872C305.528 171.491 305.709 172.211 305.709 173.032C305.709 173.853 305.528 174.579 305.165 175.208C304.813 175.827 304.328 176.312 303.709 176.664C303.09 177.016 302.402 177.192 301.645 177.192ZM301.645 175.416C302.178 175.416 302.642 175.219 303.037 174.824C303.432 174.419 303.629 173.821 303.629 173.032C303.629 172.243 303.432 171.651 303.037 171.256C302.642 170.851 302.184 170.648 301.661 170.648C301.117 170.648 300.648 170.851 300.253 171.256C299.869 171.651 299.677 172.243 299.677 173.032C299.677 173.821 299.869 174.419 300.253 174.824C300.648 175.219 301.112 175.416 301.645 175.416ZM307.54 177V169.064H309.348L309.508 170.408C309.753 169.939 310.105 169.565 310.564 169.288C311.033 169.011 311.583 168.872 312.212 168.872C313.193 168.872 313.956 169.181 314.5 169.8C315.044 170.419 315.316 171.325 315.316 172.52V177H313.268V172.712C313.268 172.029 313.129 171.507 312.852 171.144C312.575 170.781 312.143 170.6 311.556 170.6C310.98 170.6 310.505 170.803 310.132 171.208C309.769 171.613 309.588 172.179 309.588 172.904V177H307.54ZM317.274 177V169.064H319.082L319.242 170.408C319.488 169.939 319.84 169.565 320.298 169.288C320.768 169.011 321.317 168.872 321.946 168.872C322.928 168.872 323.69 169.181 324.234 169.8C324.778 170.419 325.05 171.325 325.05 172.52V177H323.002V172.712C323.002 172.029 322.864 171.507 322.586 171.144C322.309 170.781 321.877 170.6 321.29 170.6C320.714 170.6 320.24 170.803 319.866 171.208C319.504 171.613 319.322 172.179 319.322 172.904V177H317.274ZM330.865 177.192C330.065 177.192 329.355 177.021 328.737 176.68C328.118 176.339 327.633 175.859 327.281 175.24C326.929 174.621 326.753 173.907 326.753 173.096C326.753 172.275 326.923 171.544 327.265 170.904C327.617 170.264 328.097 169.768 328.705 169.416C329.323 169.053 330.049 168.872 330.881 168.872C331.659 168.872 332.347 169.043 332.945 169.384C333.542 169.725 334.006 170.195 334.337 170.792C334.678 171.379 334.849 172.035 334.849 172.76C334.849 172.877 334.843 173 334.833 173.128C334.833 173.256 334.827 173.389 334.817 173.528H328.785C328.827 174.147 329.041 174.632 329.425 174.984C329.819 175.336 330.294 175.512 330.849 175.512C331.265 175.512 331.611 175.421 331.889 175.24C332.177 175.048 332.39 174.803 332.529 174.504H334.609C334.459 175.005 334.209 175.464 333.857 175.88C333.515 176.285 333.089 176.605 332.577 176.84C332.075 177.075 331.505 177.192 330.865 177.192ZM330.881 170.536C330.379 170.536 329.937 170.68 329.553 170.968C329.169 171.245 328.923 171.672 328.817 172.248H332.769C332.737 171.725 332.545 171.309 332.193 171C331.841 170.691 331.403 170.536 330.881 170.536ZM340.459 177.192C339.649 177.192 338.934 177.016 338.315 176.664C337.697 176.312 337.206 175.821 336.843 175.192C336.491 174.563 336.315 173.843 336.315 173.032C336.315 172.221 336.491 171.501 336.843 170.872C337.206 170.243 337.697 169.752 338.315 169.4C338.934 169.048 339.649 168.872 340.459 168.872C341.473 168.872 342.326 169.139 343.019 169.672C343.713 170.195 344.155 170.92 344.347 171.848H342.187C342.081 171.464 341.867 171.165 341.547 170.952C341.238 170.728 340.87 170.616 340.443 170.616C339.878 170.616 339.398 170.829 339.003 171.256C338.609 171.683 338.411 172.275 338.411 173.032C338.411 173.789 338.609 174.381 339.003 174.808C339.398 175.235 339.878 175.448 340.443 175.448C340.87 175.448 341.238 175.341 341.547 175.128C341.867 174.915 342.081 174.611 342.187 174.216H344.347C344.155 175.112 343.713 175.832 343.019 176.376C342.326 176.92 341.473 177.192 340.459 177.192ZM349.592 177C348.76 177 348.093 176.797 347.592 176.392C347.09 175.987 346.84 175.267 346.84 174.232V170.776H345.48V169.064H346.84L347.08 166.936H348.888V169.064H351.032V170.776H348.888V174.248C348.888 174.632 348.968 174.899 349.128 175.048C349.298 175.187 349.586 175.256 349.992 175.256H350.984V177H349.592Z" fill="white" fill-opacity="0.8"/>
<path d="M293.16 255.192C292.029 255.192 291.059 254.952 290.248 254.472C289.437 253.981 288.813 253.304 288.376 252.44C287.939 251.565 287.72 250.557 287.72 249.416C287.72 248.275 287.939 247.267 288.376 246.392C288.813 245.517 289.437 244.835 290.248 244.344C291.059 243.853 292.029 243.608 293.16 243.608C294.504 243.608 295.603 243.944 296.456 244.616C297.32 245.277 297.859 246.211 298.072 247.416H295.816C295.677 246.808 295.379 246.333 294.92 245.992C294.472 245.64 293.875 245.464 293.128 245.464C292.093 245.464 291.283 245.816 290.696 246.52C290.109 247.224 289.816 248.189 289.816 249.416C289.816 250.643 290.109 251.608 290.696 252.312C291.283 253.005 292.093 253.352 293.128 253.352C293.875 253.352 294.472 253.192 294.92 252.872C295.379 252.541 295.677 252.088 295.816 251.512H298.072C297.859 252.664 297.32 253.565 296.456 254.216C295.603 254.867 294.504 255.192 293.16 255.192ZM303.645 255.192C302.877 255.192 302.184 255.016 301.565 254.664C300.957 254.312 300.472 253.827 300.109 253.208C299.757 252.579 299.581 251.853 299.581 251.032C299.581 250.211 299.762 249.491 300.125 248.872C300.488 248.243 300.973 247.752 301.581 247.4C302.2 247.048 302.893 246.872 303.661 246.872C304.418 246.872 305.101 247.048 305.709 247.4C306.328 247.752 306.813 248.243 307.165 248.872C307.528 249.491 307.709 250.211 307.709 251.032C307.709 251.853 307.528 252.579 307.165 253.208C306.813 253.827 306.328 254.312 305.709 254.664C305.09 255.016 304.402 255.192 303.645 255.192ZM303.645 253.416C304.178 253.416 304.642 253.219 305.037 252.824C305.432 252.419 305.629 251.821 305.629 251.032C305.629 250.243 305.432 249.651 305.037 249.256C304.642 248.851 304.184 248.648 303.661 248.648C303.117 248.648 302.648 248.851 302.253 249.256C301.869 249.651 301.677 250.243 301.677 251.032C301.677 251.821 301.869 252.419 302.253 252.824C302.648 253.219 303.112 253.416 303.645 253.416ZM309.54 255V247.064H311.348L311.508 248.408C311.753 247.939 312.105 247.565 312.564 247.288C313.033 247.011 313.583 246.872 314.212 246.872C315.193 246.872 315.956 247.181 316.5 247.8C317.044 248.419 317.316 249.325 317.316 250.52V255H315.268V250.712C315.268 250.029 315.129 249.507 314.852 249.144C314.575 248.781 314.143 248.6 313.556 248.6C312.98 248.6 312.505 248.803 312.132 249.208C311.769 249.613 311.588 250.179 311.588 250.904V255H309.54ZM319.274 255V247.064H321.082L321.242 248.408C321.488 247.939 321.84 247.565 322.298 247.288C322.768 247.011 323.317 246.872 323.946 246.872C324.928 246.872 325.69 247.181 326.234 247.8C326.778 248.419 327.05 249.325 327.05 250.52V255H325.002V250.712C325.002 250.029 324.864 249.507 324.586 249.144C324.309 248.781 323.877 248.6 323.29 248.6C322.714 248.6 322.24 248.803 321.866 249.208C321.504 249.613 321.322 250.179 321.322 250.904V255H319.274ZM332.865 255.192C332.065 255.192 331.355 255.021 330.737 254.68C330.118 254.339 329.633 253.859 329.281 253.24C328.929 252.621 328.753 251.907 328.753 251.096C328.753 250.275 328.923 249.544 329.265 248.904C329.617 248.264 330.097 247.768 330.705 247.416C331.323 247.053 332.049 246.872 332.881 246.872C333.659 246.872 334.347 247.043 334.945 247.384C335.542 247.725 336.006 248.195 336.337 248.792C336.678 249.379 336.849 250.035 336.849 250.76C336.849 250.877 336.843 251 336.833 251.128C336.833 251.256 336.827 251.389 336.817 251.528H330.785C330.827 252.147 331.041 252.632 331.425 252.984C331.819 253.336 332.294 253.512 332.849 253.512C333.265 253.512 333.611 253.421 333.889 253.24C334.177 253.048 334.39 252.803 334.529 252.504H336.609C336.459 253.005 336.209 253.464 335.857 253.88C335.515 254.285 335.089 254.605 334.577 254.84C334.075 255.075 333.505 255.192 332.865 255.192ZM332.881 248.536C332.379 248.536 331.937 248.68 331.553 248.968C331.169 249.245 330.923 249.672 330.817 250.248H334.769C334.737 249.725 334.545 249.309 334.193 249C333.841 248.691 333.403 248.536 332.881 248.536ZM342.459 255.192C341.649 255.192 340.934 255.016 340.315 254.664C339.697 254.312 339.206 253.821 338.843 253.192C338.491 252.563 338.315 251.843 338.315 251.032C338.315 250.221 338.491 249.501 338.843 248.872C339.206 248.243 339.697 247.752 340.315 247.4C340.934 247.048 341.649 246.872 342.459 246.872C343.473 246.872 344.326 247.139 345.019 247.672C345.713 248.195 346.155 248.92 346.347 249.848H344.187C344.081 249.464 343.867 249.165 343.547 248.952C343.238 248.728 342.87 248.616 342.443 248.616C341.878 248.616 341.398 248.829 341.003 249.256C340.609 249.683 340.411 250.275 340.411 251.032C340.411 251.789 340.609 252.381 341.003 252.808C341.398 253.235 341.878 253.448 342.443 253.448C342.87 253.448 343.238 253.341 343.547 253.128C343.867 252.915 344.081 252.611 344.187 252.216H346.347C346.155 253.112 345.713 253.832 345.019 254.376C344.326 254.92 343.473 255.192 342.459 255.192ZM351.592 255C350.76 255 350.093 254.797 349.592 254.392C349.09 253.987 348.84 253.267 348.84 252.232V248.776H347.48V247.064H348.84L349.08 244.936H350.888V247.064H353.032V248.776H350.888V252.248C350.888 252.632 350.968 252.899 351.128 253.048C351.298 253.187 351.586 253.256 351.992 253.256H352.984V255H351.592Z" fill="white" fill-opacity="0.8"/>
<g clip-path="url(#clip1_2439_144)">
<path d="M69.5038 83C64.2855 83 62.7592 83.0054 62.4623 83.0298C61.3915 83.1191 60.725 83.2876 59.9989 83.6494C59.4393 83.9272 58.9979 84.2495 58.5629 84.7012C57.7694 85.5244 57.289 86.5376 57.1151 87.7417C57.0307 88.3262 57.0058 88.4458 57.0009 91.4321C56.9989 92.4277 57.0009 93.7378 57.0009 95.4951C57.0009 100.711 57.0067 102.236 57.0316 102.532C57.1181 103.575 57.2816 104.23 57.6278 104.948C58.2894 106.321 59.5526 107.352 61.0404 107.736C61.5556 107.869 62.1249 107.942 62.8554 107.977C63.1649 107.99 66.3202 108 69.4774 108C72.6347 108 75.7914 107.996 76.0936 107.98C76.9398 107.94 77.431 107.875 77.974 107.734C79.4716 107.348 80.7118 106.333 81.3866 104.94C81.726 104.24 81.8978 103.559 81.976 102.571C81.9931 102.356 81.9999 98.9214 81.9999 95.4917C81.9999 92.0615 81.9921 88.6333 81.9755 88.418C81.8969 87.4141 81.7245 86.7388 81.3744 86.0254C81.0868 85.4414 80.768 85.0049 80.3046 84.5591C79.4774 83.769 78.4662 83.2881 77.2611 83.1143C76.6766 83.0303 76.5604 83.0054 73.5726 83H69.5038Z" fill="url(#paint2_radial_2439_144)"/>
<path d="M69.5038 83C64.2855 83 62.7592 83.0054 62.4623 83.0298C61.3915 83.1191 60.725 83.2876 59.9989 83.6494C59.4393 83.9272 58.9979 84.2495 58.5629 84.7012C57.7694 85.5244 57.289 86.5376 57.1151 87.7417C57.0307 88.3262 57.0058 88.4458 57.0009 91.4321C56.9989 92.4277 57.0009 93.7378 57.0009 95.4951C57.0009 100.711 57.0067 102.236 57.0316 102.532C57.1181 103.575 57.2816 104.23 57.6278 104.948C58.2894 106.321 59.5526 107.352 61.0404 107.736C61.5556 107.869 62.1249 107.942 62.8554 107.977C63.1649 107.99 66.3202 108 69.4774 108C72.6347 108 75.7914 107.996 76.0936 107.98C76.9398 107.94 77.431 107.875 77.974 107.734C79.4716 107.348 80.7118 106.333 81.3866 104.94C81.726 104.24 81.8978 103.559 81.976 102.571C81.9931 102.356 81.9999 98.9214 81.9999 95.4917C81.9999 92.0615 81.9921 88.6333 81.9755 88.418C81.8969 87.4141 81.7245 86.7388 81.3744 86.0254C81.0868 85.4414 80.768 85.0049 80.3046 84.5591C79.4774 83.769 78.4662 83.2881 77.2611 83.1143C76.6766 83.0303 76.5604 83.0054 73.5726 83H69.5038Z" fill="url(#paint3_radial_2439_144)"/>
<path d="M69.5038 83C64.2855 83 62.7592 83.0054 62.4623 83.0298C61.3915 83.1191 60.725 83.2876 59.9989 83.6494C59.4393 83.9272 58.9979 84.2495 58.5629 84.7012C57.7694 85.5244 57.289 86.5376 57.1151 87.7417C57.0307 88.3262 57.0058 88.4458 57.0009 91.4321C56.9989 92.4277 57.0009 93.7378 57.0009 95.4951C57.0009 100.711 57.0067 102.236 57.0316 102.532C57.1181 103.575 57.2816 104.23 57.6278 104.948C58.2894 106.321 59.5526 107.352 61.0404 107.736C61.5556 107.869 62.1249 107.942 62.8554 107.977C63.1649 107.99 66.3202 108 69.4774 108C72.6347 108 75.7914 107.996 76.0936 107.98C76.9398 107.94 77.431 107.875 77.974 107.734C79.4716 107.348 80.7118 106.333 81.3866 104.94C81.726 104.24 81.8978 103.559 81.976 102.571C81.9931 102.356 81.9999 98.9214 81.9999 95.4917C81.9999 92.0615 81.9921 88.6333 81.9755 88.418C81.8969 87.4141 81.7245 86.7388 81.3744 86.0254C81.0868 85.4414 80.768 85.0049 80.3046 84.5591C79.4774 83.769 78.4662 83.2881 77.2611 83.1143C76.6766 83.0303 76.5604 83.0054 73.5726 83H69.5038Z" fill="url(#paint4_radial_2439_144)"/>
<path d="M69.5038 83C64.2855 83 62.7592 83.0054 62.4623 83.0298C61.3915 83.1191 60.725 83.2876 59.9989 83.6494C59.4393 83.9272 58.9979 84.2495 58.5629 84.7012C57.7694 85.5244 57.289 86.5376 57.1151 87.7417C57.0307 88.3262 57.0058 88.4458 57.0009 91.4321C56.9989 92.4277 57.0009 93.7378 57.0009 95.4951C57.0009 100.711 57.0067 102.236 57.0316 102.532C57.1181 103.575 57.2816 104.23 57.6278 104.948C58.2894 106.321 59.5526 107.352 61.0404 107.736C61.5556 107.869 62.1249 107.942 62.8554 107.977C63.1649 107.99 66.3202 108 69.4774 108C72.6347 108 75.7914 107.996 76.0936 107.98C76.9398 107.94 77.431 107.875 77.974 107.734C79.4716 107.348 80.7118 106.333 81.3866 104.94C81.726 104.24 81.8978 103.559 81.976 102.571C81.9931 102.356 81.9999 98.9214 81.9999 95.4917C81.9999 92.0615 81.9921 88.6333 81.9755 88.418C81.8969 87.4141 81.7245 86.7388 81.3744 86.0254C81.0868 85.4414 80.768 85.0049 80.3046 84.5591C79.4774 83.769 78.4662 83.2881 77.2611 83.1143C76.6766 83.0303 76.5604 83.0054 73.5726 83H69.5038Z" fill="url(#paint5_radial_2439_144)"/>
<path d="M69.5054 86.21C66.981 86.21 66.6641 86.2212 65.6729 86.2661C64.6831 86.3115 64.0078 86.4678 63.417 86.6978C62.8057 86.9351 62.2871 87.2524 61.7705 87.7686C61.2534 88.2847 60.936 88.8032 60.6978 89.4136C60.4673 90.0044 60.3105 90.6797 60.2661 91.668C60.2217 92.6587 60.21 92.9756 60.21 95.498C60.21 98.0205 60.2212 98.3364 60.2661 99.3272C60.3115 100.316 60.4683 100.991 60.6978 101.582C60.9355 102.192 61.2529 102.71 61.77 103.227C62.2866 103.744 62.8052 104.062 63.416 104.299C64.0073 104.529 64.6831 104.686 65.6724 104.731C66.6641 104.776 66.9805 104.787 69.5049 104.787C72.0293 104.787 72.3452 104.776 73.3369 104.731C74.3267 104.686 75.0029 104.529 75.5942 104.299C76.2056 104.062 76.7231 103.744 77.2397 103.228C77.7568 102.711 78.0742 102.193 78.3125 101.583C78.541 100.992 78.6978 100.316 78.7441 99.3281C78.7886 98.3374 78.8003 98.0215 78.8003 95.499C78.8003 92.9766 78.7886 92.6597 78.7441 91.6689C78.6978 90.6802 78.541 90.0054 78.3125 89.4146C78.0742 88.8037 77.7568 88.2856 77.2397 87.769C76.7227 87.2524 76.2056 86.9351 75.5938 86.6978C75.001 86.4683 74.3252 86.3115 73.3359 86.2661C72.3442 86.2212 72.0288 86.21 69.5034 86.21H69.5054ZM68.6719 87.8838C68.9194 87.8833 69.1953 87.8838 69.5059 87.8838C71.9878 87.8838 72.2817 87.8926 73.2617 87.937C74.168 87.9785 74.6597 88.1299 74.9873 88.2568C75.4209 88.4253 75.7305 88.6265 76.0557 88.9517C76.3809 89.2769 76.5825 89.5864 76.7515 90.02C76.8789 90.3472 77.0303 90.8384 77.0718 91.7441C77.1162 92.7231 77.126 93.0176 77.126 95.4961C77.126 97.9751 77.1162 98.269 77.0718 99.248C77.0303 100.154 76.8789 100.645 76.7515 100.972C76.583 101.406 76.3813 101.714 76.0557 102.039C75.7305 102.364 75.4214 102.565 74.9873 102.734C74.6602 102.862 74.168 103.013 73.2617 103.054C72.2817 103.098 71.9873 103.108 69.5059 103.108C67.0239 103.108 66.7295 103.098 65.75 103.054C64.8438 103.012 64.3521 102.861 64.0239 102.733C63.5903 102.565 63.2803 102.364 62.9551 102.039C62.6299 101.713 62.4282 101.405 62.2593 100.971C62.1318 100.644 61.9805 100.153 61.939 99.2471C61.8945 98.2681 61.8857 97.9736 61.8857 95.4937C61.8857 93.0132 61.8945 92.7207 61.939 91.7417C61.9805 90.8359 62.1318 90.3447 62.2593 90.0171C62.4277 89.5835 62.6294 89.2739 62.9551 88.9487C63.2803 88.6235 63.5903 88.4224 64.0239 88.2534C64.3516 88.1255 64.8438 87.9746 65.75 87.9331C66.6074 87.8945 66.9399 87.8828 68.6724 87.8809L68.6719 87.8838ZM74.4673 89.4263C73.8516 89.4263 73.3521 89.9248 73.3521 90.5405C73.3521 91.1558 73.8516 91.6553 74.4673 91.6553C75.083 91.6553 75.5825 91.1563 75.5825 90.5405C75.5825 89.9248 75.083 89.4258 74.4673 89.4263ZM69.5054 90.7285C66.8691 90.7285 64.7319 92.8643 64.7319 95.4985C64.7319 98.1328 66.8691 100.268 69.5054 100.268C72.1416 100.268 74.2778 98.1328 74.2778 95.4985C74.2778 92.8643 72.1416 90.7285 69.5054 90.7285ZM69.5054 92.4023C71.2163 92.4023 72.604 93.7886 72.604 95.4985C72.604 97.2085 71.2168 98.5947 69.5054 98.5947C67.7939 98.5947 66.4067 97.2085 66.4067 95.4985C66.4072 93.7881 67.7944 92.4023 69.5054 92.4023Z" fill="white" fill-opacity="0.8"/>
</g>
<g clip-path="url(#clip2_2439_144)">
<path d="M61.6044 179.538V183.985L65.7996 181.621C66.969 181.955 68.2121 182.135 69.5 182.135C76.404 182.135 82 176.959 82 170.575C82 164.19 76.404 159.015 69.5 159.015C62.5964 159.015 57 164.19 57 170.575C57 174.19 58.7944 177.418 61.6044 179.538Z" fill="url(#paint6_linear_2439_144)"/>
<path d="M68.165 167.409L61.4238 174.483L67.5589 171.147L70.7643 174.483L77.4675 167.409L71.4005 170.687L68.165 167.409Z" fill="white" fill-opacity="0.8"/>
</g>
<rect x="57" y="237" width="25" height="25" rx="5.26316" fill="#32DB27"/>
<ellipse cx="69.5011" cy="248.952" rx="9.42982" ry="7.78509" fill="#F6F6F6"/>
<path d="M63.251 257.943C63.251 257.943 64.6764 256.188 64.3475 255.53C64.0185 254.872 66.979 256.517 66.979 256.517C65.5787 256.982 65.2247 257.723 63.251 257.943Z" fill="#F6F6F6"/>
<g clip-path="url(#clip3_2439_144)">
<path d="M329 94.9999C328.981 93.9574 328.757 92.9289 328.34 91.9734C327.923 91.0179 327.321 90.1542 326.569 89.4319C325.462 88.3618 324.062 87.6446 322.546 87.3712C321.031 87.0977 319.468 87.2803 318.057 87.8959C317.134 88.3009 316.299 88.8879 315.608 89.6079C314.917 90.3279 314.371 91.1819 314.011 92.1049C313.289 93.9589 313.331 96.0232 314.126 97.8469C314.518 98.7389 315.087 99.5469 315.784 100.215C316.481 100.883 317.307 101.41 318.2 101.758C319.092 102.104 320.043 102.272 320.999 102.251C322.415 102.223 323.79 101.777 324.952 100.967C326.113 100.158 327.009 99.0223 327.525 97.7039C327.728 97.1818 327.867 96.6372 327.94 96.0819L327.999 96.0839C328.137 96.0838 328.274 96.055 328.401 95.9994C328.527 95.9438 328.641 95.8626 328.735 95.7608C328.828 95.659 328.9 95.5389 328.944 95.4081C328.989 95.2773 329.006 95.1387 328.995 95.0009H328.999L329 94.9999ZM327.411 97.6549C327.044 98.4859 326.513 99.2389 325.861 99.8609C325.209 100.483 324.439 100.973 323.607 101.295C322.776 101.617 321.89 101.771 320.999 101.749C320.121 101.73 319.255 101.538 318.451 101.183C317.647 100.829 316.921 100.319 316.314 99.6839C315.716 99.0572 315.247 98.3188 314.934 97.5109C314.312 95.9022 314.354 94.1128 315.05 92.5349C315.392 91.7649 315.886 91.0669 316.491 90.4909C317.096 89.9149 317.812 89.4619 318.583 89.1649C319.354 88.8669 320.179 88.7269 320.999 88.7489C321.819 88.7709 322.628 88.9509 323.367 89.2809C324.107 89.6099 324.777 90.0859 325.33 90.6679C325.883 91.2499 326.318 91.9379 326.602 92.6789C326.886 93.4185 327.021 94.2069 326.999 94.9989H327.003C326.981 95.2587 327.062 95.5167 327.228 95.7179C327.394 95.9191 327.632 96.0476 327.891 96.0759C327.795 96.6193 327.633 97.1491 327.41 97.6539L327.411 97.6549Z" fill="white" fill-opacity="0.8"/>
</g>
<defs>
<linearGradient id="paint0_linear_2439_144" x1="69.4966" y1="27.5681" x2="69.4966" y2="3.43388" gradientUnits="userSpaceOnUse">
<stop stop-color="#20B038"/>
<stop offset="1" stop-color="#60D66A"/>
</linearGradient>
<linearGradient id="paint1_linear_2439_144" x1="69.4995" y1="27.9976" x2="69.4995" y2="2.99756" gradientUnits="userSpaceOnUse">
<stop stop-color="#F9F9F9"/>
<stop offset="1" stop-color="white"/>
</linearGradient>
<radialGradient id="paint2_radial_2439_144" cx="0" cy="0" r="1" gradientUnits="userSpaceOnUse" gradientTransform="translate(81.1928 94.718) rotate(164.251) scale(15.9736 11.5082)">
<stop stop-color="#FF005F"/>
<stop offset="1" stop-color="#FC01D8"/>
</radialGradient>
<radialGradient id="paint3_radial_2439_144" cx="0" cy="0" r="1" gradientUnits="userSpaceOnUse" gradientTransform="translate(63.6404 109.926) rotate(-90) scale(19.9555 21.1724)">
<stop stop-color="#FFCC00"/>
<stop offset="0.1242" stop-color="#FFCC00"/>
<stop offset="0.5672" stop-color="#FE4A05"/>
<stop offset="0.6942" stop-color="#FF0F3F"/>
<stop offset="1" stop-color="#FE0657" stop-opacity="0"/>
</radialGradient>
<radialGradient id="paint4_radial_2439_144" cx="0" cy="0" r="1" gradientUnits="userSpaceOnUse" gradientTransform="translate(70.1314 107.647) rotate(-59.8697) scale(8.25177 10.7429)">
<stop stop-color="#FFCC00"/>
<stop offset="1" stop-color="#FFCC00" stop-opacity="0"/>
</radialGradient>
<radialGradient id="paint5_radial_2439_144" cx="0" cy="0" r="1" gradientUnits="userSpaceOnUse" gradientTransform="translate(60.3919 84.0188) rotate(164.274) scale(15.7964 5.38186)">
<stop stop-color="#780CFF"/>
<stop offset="1" stop-color="#820BFF" stop-opacity="0"/>
</radialGradient>
<linearGradient id="paint6_linear_2439_144" x1="2857" y1="540.028" x2="2857" y2="5547.31" gradientUnits="userSpaceOnUse">
<stop stop-color="#00C6FF"/>
<stop offset="1" stop-color="#0068FF"/>
</linearGradient>
<clipPath id="clip0_2439_144">
<rect width="25" height="25" fill="white" transform="translate(57 3)"/>
</clipPath>
<clipPath id="clip1_2439_144">
<rect width="25" height="25" fill="white" transform="translate(57 83)"/>
</clipPath>
<clipPath id="clip2_2439_144">
<rect width="25" height="25" fill="white" transform="translate(57 159)"/>
</clipPath>
<clipPath id="clip3_2439_144">
<rect width="16" height="16" fill="white" transform="translate(313 87)"/>
</clipPath>
</defs>
</svg>
