<svg width="71" height="71" viewBox="0 0 71 71" fill="none" xmlns="http://www.w3.org/2000/svg">
<rect width="71" height="71" rx="15" fill="white"/>
<g clip-path="url(#clip0_2285_107)">
<path d="M41.5726 36.1331C41.5734 37.8398 41.2574 39.5326 40.6399 41.1297C39.0002 41.7313 37.2624 42.0397 35.5103 42.0399H35.4898C33.6855 42.0377 31.9568 41.7164 30.3617 41.1304C29.7438 39.5331 29.4275 37.8401 29.428 36.1331V36.1124C29.4272 34.406 29.7428 32.7135 30.3598 31.1165C31.9994 30.5137 33.7375 30.2053 35.49 30.2061H35.5105C37.2627 30.2052 39.0006 30.5136 40.6401 31.1163C41.2577 32.7131 41.5737 34.4057 41.5728 36.1122V36.1329L41.5726 36.1331ZM59.4525 32.1783H45.2743L55.2992 22.4097C54.5123 21.3327 53.6346 20.3216 52.6752 19.3869V19.3861C51.7157 18.4524 50.6782 17.5979 49.5735 16.8316L39.5478 26.6002V12.7855C38.2144 12.567 36.8647 12.4568 35.5126 12.4561L35.4875 12.4561C34.1121 12.4568 32.765 12.5707 31.4522 12.7855V26.6002L21.4266 16.8316C20.3217 17.5977 19.2846 18.4528 18.3264 19.3878L18.3211 19.3915C17.3633 20.3251 16.4868 21.3346 15.7007 22.4097L25.7271 32.1783H11.5491C11.5491 32.1783 11.2109 34.773 11.2109 36.1146V36.1309C11.2109 37.4725 11.3276 38.7873 11.5491 40.0671H25.7273L15.7009 49.8357C17.2781 51.9923 19.2132 53.8778 21.4266 55.4146L31.4522 45.6452V59.4606C32.7842 59.6781 34.1323 59.7881 35.4828 59.7894H35.5171C36.8676 59.7882 38.2157 59.6782 39.5476 59.4606V45.6452L49.5743 55.4146C50.6788 54.648 51.716 53.7933 52.6752 52.8593L52.6774 52.8571C53.6356 51.9223 54.5125 50.9117 55.2992 49.8357L45.2728 40.0671H59.4525C59.6732 38.7895 59.7884 37.4786 59.7899 36.1399V36.1055C59.7884 34.7669 59.6732 33.456 59.4525 32.1783Z" fill="#FF4A00"/>
</g>
<defs>
<clipPath id="clip0_2285_107">
<rect width="48.5789" height="47.3333" fill="white" transform="translate(11.2109 12.4561)"/>
</clipPath>
</defs>
</svg>
